<svg width="115" height="115" viewBox="0 0 115 115" fill="none" xmlns="http://www.w3.org/2000/svg">
<circle cx="57.5" cy="57.5" r="57.5" fill="#FAD1AE"/>
<circle cx="57.6565" cy="58.5" r="42.2131" fill="#FFEAD3"/>
<path d="M42.884 45.6457C42.5794 48.894 42.3657 54.6426 44.2837 57.0895C44.2837 57.0895 43.3808 50.7745 51.4748 42.8515C54.7338 39.6619 55.4871 35.3238 54.3492 32.0701C53.7027 30.2269 52.522 28.7043 51.4962 27.6411C50.8979 27.016 51.3573 25.9849 52.2282 26.0223C57.496 26.2574 66.0334 27.7212 69.661 36.825C71.2531 40.8213 71.3707 44.9511 70.612 49.1504C70.1312 51.8324 68.4216 57.7947 72.3217 58.5267C75.1052 59.0502 76.4515 56.8384 77.0552 55.2463C77.3063 54.5838 78.1772 54.4182 78.6473 54.9471C83.3488 60.2951 83.7495 66.594 82.7771 72.0167C80.8965 82.4989 70.2808 90.1281 59.7345 90.1281C46.5597 90.1281 36.0721 82.5897 33.3528 68.9447C32.2575 63.4365 32.8132 52.5376 41.3079 44.8443C41.9383 44.2673 42.9694 44.7802 42.884 45.6457Z" fill="url(#paint0_radial_296_1510)"/>
<path d="M64.5482 65.2476C59.6918 58.9968 61.8662 51.8644 63.0576 49.0222C63.2179 48.6482 62.7905 48.2956 62.4539 48.5253C60.365 49.9464 56.0856 53.2909 54.0928 57.9977C51.3948 64.3608 51.5871 67.4755 53.1845 71.2794C54.1462 73.5714 53.0296 74.0576 52.4686 74.1431C51.9237 74.2285 51.4215 73.8652 51.0208 73.4859C49.868 72.3793 49.0466 70.9732 48.6487 69.4256C48.5632 69.0943 48.1304 69.0035 47.9327 69.276C46.4368 71.3435 45.6621 74.6613 45.6247 77.0067C45.5072 84.2566 51.4963 90.1335 58.7408 90.1335C67.8713 90.1335 74.5229 80.036 69.2764 71.5947C67.7538 69.1371 66.322 67.5289 64.5482 65.2476Z" fill="url(#paint1_radial_296_1510)"/>
<defs>
<radialGradient id="paint0_radial_296_1510" cx="0" cy="0" r="1" gradientUnits="userSpaceOnUse" gradientTransform="translate(57.1251 90.2942) rotate(-179.751) scale(37.7121 61.8781)">
<stop offset="0.314" stop-color="#FF9800"/>
<stop offset="0.662" stop-color="#FF6D00"/>
<stop offset="0.972" stop-color="#F44336"/>
</radialGradient>
<radialGradient id="paint1_radial_296_1510" cx="0" cy="0" r="1" gradientUnits="userSpaceOnUse" gradientTransform="translate(59.243 52.7665) rotate(90.5787) scale(39.4585 29.6955)">
<stop offset="0.214" stop-color="#FFF176"/>
<stop offset="0.328" stop-color="#FFF27D"/>
<stop offset="0.487" stop-color="#FFF48F"/>
<stop offset="0.672" stop-color="#FFF7AD"/>
<stop offset="0.793" stop-color="#FFF9C4"/>
<stop offset="0.822" stop-color="#FFF8BD" stop-opacity="0.804"/>
<stop offset="0.863" stop-color="#FFF6AB" stop-opacity="0.529"/>
<stop offset="0.91" stop-color="#FFF38D" stop-opacity="0.209"/>
<stop offset="0.941" stop-color="#FFF176" stop-opacity="0"/>
</radialGradient>
</defs>
</svg>
