<svg width="259" height="163" viewBox="0 0 259 163" fill="none" xmlns="http://www.w3.org/2000/svg">
<path d="M0.220215 57.4633L228.19 90.2833L258.78 121.153L0.220215 57.4633Z" fill="#497E5D"/>
<path opacity="0.6" d="M0.220215 57.4633L228.19 90.2833L258.78 121.153L0.220215 57.4633Z" fill="white"/>
<path d="M0.220215 57.4633L228.19 90.2833L217.61 134.923L0.220215 57.4633Z" fill="#497E5D"/>
<path opacity="0.2" d="M0.220215 57.4633L228.19 90.2833L217.61 134.923L0.220215 57.4633Z" fill="black"/>
<path d="M212.93 5.78322L226.16 67.7832C226.505 69.4022 226.192 71.0916 225.293 72.4807C224.393 73.8699 222.979 74.8454 221.36 75.1932L103.28 100.393C101.662 100.735 99.9736 100.421 98.5852 99.522C97.1967 98.6225 96.2207 97.2101 95.8704 95.5932L82.6304 33.5932C82.2893 31.9731 82.6039 30.2838 83.5053 28.895C84.4068 27.5063 85.8217 26.5312 87.4404 26.1832L205.52 0.983221C207.141 0.642083 208.83 0.95667 210.219 1.85814C211.607 2.7596 212.582 4.17452 212.93 5.79322V5.78322Z" fill="#497E5D"/>
<path opacity="0.4" d="M212.93 5.78322L226.16 67.7832C226.505 69.4022 226.192 71.0916 225.293 72.4807C224.393 73.8699 222.979 74.8454 221.36 75.1932L103.28 100.393C101.662 100.735 99.9736 100.421 98.5852 99.522C97.1967 98.6225 96.2207 97.2101 95.8704 95.5932L82.6304 33.5932C82.2893 31.9731 82.6039 30.2838 83.5053 28.895C84.4068 27.5063 85.8217 26.5312 87.4404 26.1832L205.52 0.983221C207.141 0.642083 208.83 0.95667 210.219 1.85814C211.607 2.7596 212.582 4.17452 212.93 5.79322V5.78322Z" fill="black"/>
<path d="M210.02 1.72323L170.57 50.1532C166.912 54.6434 161.83 57.75 156.165 58.9593C150.501 60.1685 144.594 59.4079 139.42 56.8032L83.6304 28.7032C84.533 27.4067 85.8952 26.5021 87.4404 26.1732L205.52 0.973234C207.061 0.645282 208.669 0.913266 210.02 1.72323Z" fill="#497E5D"/>
<path d="M0.220215 57.4633L188.25 102.153L217.61 134.923L0.220215 57.4633Z" fill="#497E5D"/>
<path opacity="0.6" d="M0.220215 57.4633L188.25 102.153L217.61 134.923L0.220215 57.4633Z" fill="white"/>
<path d="M68.8091 100.538L68.3037 101.401L89.2282 113.658L89.7337 112.795L68.8091 100.538Z" fill="#497E5D"/>
<path d="M98.9717 118.199L98.4663 119.062L105.991 123.469L106.496 122.606L98.9717 118.199Z" fill="#497E5D"/>
<path d="M0.220215 57.4633L188.25 102.153L151.7 146.203L0.220215 57.4633Z" fill="#497E5D"/>
<path d="M251.72 162.163C251.467 162.164 251.216 162.116 250.98 162.023L220.36 149.903C219.87 149.706 219.478 149.323 219.27 148.838C219.061 148.352 219.053 147.804 219.247 147.313C219.441 146.822 219.822 146.427 220.306 146.216C220.79 146.004 221.338 145.992 221.83 146.183L252.46 158.303C252.893 158.474 253.253 158.792 253.478 159.2C253.702 159.608 253.777 160.082 253.689 160.54C253.602 160.997 253.357 161.41 252.997 161.706C252.638 162.003 252.186 162.164 251.72 162.163Z" fill="#497E5D"/>
<path opacity="0.3" d="M251.72 162.163C251.467 162.164 251.216 162.116 250.98 162.023L220.36 149.903C219.87 149.706 219.478 149.323 219.27 148.838C219.061 148.352 219.053 147.804 219.247 147.313C219.441 146.822 219.822 146.427 220.306 146.216C220.79 146.004 221.338 145.992 221.83 146.183L252.46 158.303C252.893 158.474 253.253 158.792 253.478 159.2C253.702 159.608 253.777 160.082 253.689 160.54C253.602 160.997 253.357 161.41 252.997 161.706C252.638 162.003 252.186 162.164 251.72 162.163Z" fill="black"/>
<path d="M249.91 144.603C249.66 144.602 249.412 144.551 249.18 144.453L232.73 137.903C232.484 137.808 232.26 137.665 232.069 137.482C231.879 137.3 231.726 137.082 231.621 136.84C231.515 136.598 231.458 136.338 231.453 136.074C231.449 135.811 231.496 135.549 231.593 135.303C231.69 135.058 231.835 134.834 232.018 134.645C232.202 134.456 232.421 134.305 232.664 134.201C232.906 134.097 233.167 134.041 233.43 134.038C233.694 134.035 233.956 134.085 234.2 134.183L250.65 140.703C251.143 140.897 251.539 141.279 251.751 141.764C251.963 142.25 251.974 142.8 251.78 143.293C251.64 143.676 251.385 144.007 251.051 144.241C250.716 144.475 250.319 144.602 249.91 144.603Z" fill="#497E5D"/>
<path opacity="0.5" d="M249.91 144.603C249.66 144.602 249.412 144.551 249.18 144.453L232.73 137.903C232.484 137.808 232.26 137.665 232.069 137.482C231.879 137.3 231.726 137.082 231.621 136.84C231.515 136.598 231.458 136.338 231.453 136.074C231.449 135.811 231.496 135.549 231.593 135.303C231.69 135.058 231.835 134.834 232.018 134.645C232.202 134.456 232.421 134.305 232.664 134.201C232.906 134.097 233.167 134.041 233.43 134.038C233.694 134.035 233.956 134.085 234.2 134.183L250.65 140.703C251.143 140.897 251.539 141.279 251.751 141.764C251.963 142.25 251.974 142.8 251.78 143.293C251.64 143.676 251.385 144.007 251.051 144.241C250.716 144.475 250.319 144.602 249.91 144.603Z" fill="white"/>
<path d="M215.52 161.903C215.271 161.9 215.023 161.853 214.79 161.763L184.92 149.903C184.674 149.808 184.45 149.665 184.259 149.482C184.069 149.3 183.916 149.082 183.811 148.84C183.705 148.598 183.648 148.338 183.643 148.074C183.639 147.811 183.686 147.549 183.783 147.303C183.88 147.058 184.024 146.834 184.208 146.645C184.392 146.456 184.611 146.305 184.854 146.201C185.096 146.097 185.357 146.041 185.62 146.038C185.884 146.035 186.146 146.085 186.39 146.183L216.26 158.003C216.694 158.174 217.054 158.492 217.278 158.9C217.502 159.308 217.577 159.782 217.489 160.24C217.402 160.697 217.157 161.11 216.798 161.406C216.438 161.703 215.986 161.864 215.52 161.863V161.903Z" fill="#497E5D"/>
<path opacity="0.3" d="M215.52 161.903C215.271 161.9 215.023 161.853 214.79 161.763L184.92 149.903C184.674 149.808 184.45 149.665 184.259 149.482C184.069 149.3 183.916 149.082 183.811 148.84C183.705 148.598 183.648 148.338 183.643 148.074C183.639 147.811 183.686 147.549 183.783 147.303C183.88 147.058 184.024 146.834 184.208 146.645C184.392 146.456 184.611 146.305 184.854 146.201C185.096 146.097 185.357 146.041 185.62 146.038C185.884 146.035 186.146 146.085 186.39 146.183L216.26 158.003C216.694 158.174 217.054 158.492 217.278 158.9C217.502 159.308 217.577 159.782 217.489 160.24C217.402 160.697 217.157 161.11 216.798 161.406C216.438 161.703 215.986 161.864 215.52 161.863V161.903Z" fill="black"/>
</svg>
