<svg width="50" height="51" viewBox="0 0 50 51" fill="none" xmlns="http://www.w3.org/2000/svg">
<path d="M45.8333 29.4583V34.2291C45.8333 41.8125 41.3124 46.3333 33.7291 46.3333H16.2708C10.9583 46.3333 7.12492 44.1041 5.33325 40.1458L5.56242 39.9791L15.8124 33.1041C17.4791 31.9791 19.8333 32.1041 21.3124 33.3958L22.0208 33.9791C23.6458 35.375 26.2708 35.375 27.8958 33.9791L36.5624 26.5416C38.1874 25.1458 40.8124 25.1458 42.4374 26.5416L45.8333 29.4583Z" fill="#228B22"/>
<path opacity="0.4" d="M43.6876 17.1666H37.5626C34.9167 17.1666 33.3334 15.5833 33.3334 12.9375V6.81246C33.3334 5.97913 33.5001 5.27079 33.7917 4.66663C33.7709 4.66663 33.7501 4.66663 33.7292 4.66663H16.2709C8.68758 4.66663 4.16675 9.18746 4.16675 16.7708V34.2291C4.16675 36.5 4.56258 38.4791 5.33341 40.1458L5.56258 39.9791L15.8126 33.1041C17.4792 31.9791 19.8334 32.1041 21.3126 33.3958L22.0209 33.9791C23.6459 35.375 26.2709 35.375 27.8959 33.9791L36.5626 26.5416C38.1876 25.1458 40.8126 25.1458 42.4376 26.5416L45.8334 29.4583V16.7708C45.8334 16.75 45.8334 16.7291 45.8334 16.7083C45.2292 17 44.5209 17.1666 43.6876 17.1666Z" fill="#228B22"/>
<path d="M18.7501 22.125C21.4885 22.125 23.7084 19.9051 23.7084 17.1667C23.7084 14.4283 21.4885 12.2084 18.7501 12.2084C16.0117 12.2084 13.7917 14.4283 13.7917 17.1667C13.7917 19.9051 16.0117 22.125 18.7501 22.125Z" fill="#228B22"/>
<path d="M43.6874 2.58331H37.5624C34.9166 2.58331 33.3333 4.16665 33.3333 6.81248V12.9375C33.3333 15.5833 34.9166 17.1666 37.5624 17.1666H43.6874C46.3333 17.1666 47.9166 15.5833 47.9166 12.9375V6.81248C47.9166 4.16665 46.3333 2.58331 43.6874 2.58331ZM44.1458 9.47915C43.8958 9.72915 43.5624 9.85415 43.2291 9.85415C42.8958 9.85415 42.5624 9.72915 42.3124 9.47915L41.9374 9.10415V13.7708C41.9374 14.5 41.3541 15.0833 40.6249 15.0833C39.8958 15.0833 39.3124 14.5 39.3124 13.7708V9.10415L38.9374 9.47915C38.4374 9.97915 37.6041 9.97915 37.1041 9.47915C36.6041 8.97915 36.6041 8.14581 37.1041 7.64581L39.7083 5.04165C39.8124 4.93748 39.9583 4.85415 40.1041 4.79165C40.1458 4.77081 40.1874 4.77081 40.2291 4.74998C40.3333 4.70831 40.4374 4.68748 40.5624 4.68748C40.6041 4.68748 40.6458 4.68748 40.6874 4.68748C40.8333 4.68748 40.9583 4.70831 41.1041 4.77081C41.1249 4.77081 41.1249 4.77081 41.1458 4.77081C41.2916 4.83331 41.4166 4.91665 41.5208 5.02081C41.5416 5.04165 41.5416 5.04165 41.5624 5.04165L44.1666 7.64581C44.6666 8.14581 44.6666 8.97915 44.1458 9.47915Z" fill="#228B22"/>
</svg>
