<svg width="30" height="30" viewBox="0 0 30 30" fill="none" xmlns="http://www.w3.org/2000/svg">
<g clip-path="url(#clip0_218_1151)">
<path d="M9.56172 26.1375C9.52422 26.1375 9.47422 26.1625 9.43672 26.1625C7.01172 24.9625 5.03672 22.975 3.82422 20.55C3.82422 20.5125 3.84922 20.4625 3.84922 20.425C5.37422 20.875 6.94922 21.2125 8.51172 21.475C8.78672 23.05 9.11172 24.6125 9.56172 26.1375Z" fill="#F3F3F3"/>
<path d="M26.1758 20.5625C24.9383 23.05 22.8758 25.0625 20.3633 26.275C20.8383 24.6875 21.2383 23.0875 21.5008 21.475C23.0758 21.2125 24.6258 20.875 26.1508 20.425C26.1383 20.475 26.1758 20.525 26.1758 20.5625Z" fill="#F3F3F3"/>
<path d="M26.2758 9.63751C24.7008 9.16251 23.1133 8.77501 21.5008 8.50001C21.2383 6.88751 20.8508 5.28751 20.3633 3.72501C22.9508 4.96251 25.0383 7.05001 26.2758 9.63751Z" fill="#F3F3F3"/>
<path d="M9.56211 3.8625C9.11211 5.3875 8.78711 6.9375 8.52461 8.5125C6.91211 8.7625 5.31211 9.1625 3.72461 9.6375C4.93711 7.125 6.94961 5.0625 9.43711 3.825C9.47461 3.825 9.52461 3.8625 9.56211 3.8625Z" fill="#F3F3F3"/>
<path d="M19.3617 8.2375C16.4617 7.9125 13.5367 7.9125 10.6367 8.2375C10.9492 6.525 11.3492 4.8125 11.9117 3.1625C11.9367 3.0625 11.9242 2.9875 11.9367 2.8875C12.9242 2.65 13.9367 2.5 14.9992 2.5C16.0492 2.5 17.0742 2.65 18.0492 2.8875C18.0617 2.9875 18.0617 3.0625 18.0867 3.1625C18.6492 4.825 19.0492 6.525 19.3617 8.2375Z" fill="#F3F3F3"/>
<path d="M8.2375 19.3625C6.5125 19.05 4.8125 18.65 3.1625 18.0875C3.0625 18.0625 2.9875 18.075 2.8875 18.0625C2.65 17.075 2.5 16.0625 2.5 15C2.5 13.95 2.65 12.925 2.8875 11.95C2.9875 11.9375 3.0625 11.9375 3.1625 11.9125C4.825 11.3625 6.5125 10.95 8.2375 10.6375C7.925 13.5375 7.925 16.4625 8.2375 19.3625Z" fill="#F3F3F3"/>
<path d="M27.4992 15C27.4992 16.0625 27.3492 17.075 27.1117 18.0625C27.0117 18.075 26.9367 18.0625 26.8367 18.0875C25.1742 18.6375 23.4742 19.05 21.7617 19.3625C22.0867 16.4625 22.0867 13.5375 21.7617 10.6375C23.4742 10.95 25.1867 11.35 26.8367 11.9125C26.9367 11.9375 27.0117 11.95 27.1117 11.95C27.3492 12.9375 27.4992 13.95 27.4992 15Z" fill="#F3F3F3"/>
<path d="M19.3617 21.7625C19.0492 23.4875 18.6492 25.1875 18.0867 26.8375C18.0617 26.9375 18.0617 27.0125 18.0492 27.1125C17.0742 27.35 16.0492 27.5 14.9992 27.5C13.9367 27.5 12.9242 27.35 11.9367 27.1125C11.9242 27.0125 11.9367 26.9375 11.9117 26.8375C11.3617 25.175 10.9492 23.4875 10.6367 21.7625C12.0867 21.925 13.5367 22.0375 14.9992 22.0375C16.4617 22.0375 17.9242 21.925 19.3617 21.7625Z" fill="#F3F3F3"/>
<path d="M19.7042 19.7042C16.5778 20.0986 13.4222 20.0986 10.2958 19.7042C9.90139 16.5778 9.90139 13.4222 10.2958 10.2958C13.4222 9.90139 16.5778 9.90139 19.7042 10.2958C20.0986 13.4222 20.0986 16.5778 19.7042 19.7042Z" fill="#F3F3F3"/>
</g>
<defs>
<clipPath id="clip0_218_1151">
<rect width="30" height="30" fill="white"/>
</clipPath>
</defs>
</svg>
