<svg width="1233" height="163" viewBox="0 0 1233 163" fill="none" xmlns="http://www.w3.org/2000/svg">
<path d="M64.3 114.9C64.3 114.9 64.5 114.8 64.9 114.6C67.5 113 71.7 112.1 77.5 111.9C83.5 111.5 89.8 111.4 96.4 111.6C103 111.8 109.1 112.2 114.7 112.8C120.5 113.2 124.4 113.4 126.4 113.4H127L127.3 113.7C128.5 124.3 129.3 135.6 129.7 147.6C130.1 159.4 129.3 170.7 127.3 181.5C126.3 191.7 123.2 199.5 118 204.9C112.8 210.3 106.4 214.4 98.8 217.2C93.8 218.6 88.6 219.8 83.2 220.8C77.8 222 72.3 222.8 66.7 223.2C61.1 223.8 55.6 223.8 50.2 223.2C45 222.6 40 221.3 35.2 219.3C27.2 215.9 21.1 211.3 16.9 205.5C12.7 199.7 9.4 192.5 7 183.9C6.4 181.7 5.7 178.7 4.9 174.9C4.3 170.9 3.8 166.9 3.4 162.9C2.8 156.5 2.3 150.7 1.9 145.5C1.5 140.3 1.1 135.2 0.7 130.2C0.5 125 0.3 119.6 0.1 114C0.1 108.2 0.2 101.6 0.4 94.2C0.6 87.8 0.9 81.3 1.3 74.7C1.7 67.9 2.4 61.3 3.4 54.9C4.4 48.3 6.1 41.9 8.5 35.7C11.1 29.5 15.3 24.4 21.1 20.4C25.1 17 29.6 14.5 34.6 12.9C39.6 11.3 44.8 10.1 50.2 9.29998C61.2 7.89999 71.7 8.29999 81.7 10.5C91.7 12.5 100.3 16.2 107.5 21.6C114.7 27 120.1 34.2 123.7 43.2C127.3 52 128.4 62.5 127 74.7L126.7 76.5C126.3 77.1 125.4 77.4 124 77.4C122.6 77.4 120.3 77.5 117.1 77.7C114.1 77.7 111.5 77.8 109.3 78C107.3 78 105.2 78 103 78C101 78 98.9 77.9 96.7 77.7C94.5 77.5 91.9 77.2 88.9 76.8C88.3 74.8 87.4 72.4 86.2 69.6C85.2 66.6 83.8 63.9 82 61.5C80.4 58.9 78.5 56.7 76.3 54.9C74.1 52.9 71.5 51.9 68.5 51.9C65.1 51.7 61.8 51.6 58.6 51.6C55.4 51.6 52.6 52.8 50.2 55.2C49.8 55.6 49.2 56.7 48.4 58.5C47.8 60.1 47.3 61.7 46.9 63.3C45.5 68.1 44.3 73.9 43.3 80.7C42.5 87.5 41.9 94.8 41.5 102.6C41.1 110.2 41 118.1 41.2 126.3C41.4 134.5 41.8 142.3 42.4 149.7C42.8 154.1 43.6 158.9 44.8 164.1C46 169.3 48.5 173.4 52.3 176.4C54.1 177.6 56.4 178.5 59.2 179.1C62.2 179.5 65.3 179.4 68.5 178.8C71.9 178.2 75 177.4 77.8 176.4C80 175.4 81.9 174.1 83.5 172.5C85.1 170.7 86.3 168.4 87.1 165.6C87.3 164.8 87.5 163.5 87.7 161.7C88.1 159.7 88.3 157.7 88.3 155.7C88.5 153.7 88.5 151.9 88.3 150.3C88.3 148.7 88 147.8 87.4 147.6C86.2 147.4 84.5 147.4 82.3 147.6C80.3 147.6 78.1 147.7 75.7 147.9C73.5 147.9 71.4 147.9 69.4 147.9C67.6 147.7 66.2 147.4 65.2 147C64.8 143.8 64.5 141 64.3 138.6C64.3 136.2 64.3 133.9 64.3 131.7C64.5 129.3 64.6 126.9 64.6 124.5C64.6 122.1 64.4 119.1 64 115.5V115.2C64 115 64.1 114.9 64.3 114.9ZM188.034 76.5C188.234 77.1 188.334 78.1 188.334 79.5C189.134 79.1 190.934 78.3 193.734 77.1C196.734 75.9 199.634 74.8 202.434 73.8C206.234 72.6 210.534 71.7 215.334 71.1C220.134 70.3 224.634 69.8 228.834 69.6C233.034 69.4 236.534 69.4 239.334 69.6C242.334 69.6 243.834 69.7 243.834 69.9C243.834 76.7 243.734 82.7 243.534 87.9C243.534 93.1 243.534 97.8 243.534 102C243.534 106 243.534 109.7 243.534 113.1C243.534 116.5 243.634 119.7 243.834 122.7L241.134 121.8C240.134 121.4 239.034 121.1 237.834 120.9C236.834 120.5 235.834 120.1 234.834 119.7C232.434 119.1 229.934 118.6 227.334 118.2C224.934 117.8 223.634 117.6 223.434 117.6C218.034 117 213.034 116.7 208.434 116.7C204.034 116.7 200.134 117.4 196.734 118.8C193.534 120.2 191.034 122.4 189.234 125.4C187.434 128.4 186.634 132.7 186.834 138.3C187.034 145.3 187.234 151.9 187.434 158.1C187.634 164.3 187.734 170.6 187.734 177C187.734 183.2 187.734 189.6 187.734 196.2C187.934 202.6 188.034 209.5 188.034 216.9V218.1C184.634 219.1 181.534 219.7 178.734 219.9C175.934 220.1 173.034 220.1 170.034 219.9C167.034 219.9 163.734 219.8 160.134 219.6C156.734 219.4 152.634 219.5 147.834 219.9C147.834 195.3 147.534 170.7 146.934 146.1C146.534 121.5 146.734 96 147.534 69.6C149.934 69.8 151.934 70 153.534 70.2C155.134 70.2 156.634 70.2 158.034 70.2C159.434 70.2 160.934 70.2 162.534 70.2C164.134 70 166.134 69.8 168.534 69.6C169.334 69.6 170.734 69.5 172.734 69.3C174.934 69.1 177.134 68.9 179.334 68.7C181.734 68.5 183.734 68.5 185.334 68.7C187.134 68.7 188.034 68.9 188.034 69.3C188.034 70.9 188.034 72.1 188.034 72.9C188.034 73.7 188.034 74.4 188.034 75C188.034 75.4 188.034 75.9 188.034 76.5ZM303.283 144.6C298.883 144.4 295.683 144.1 293.683 143.7V149.1C293.883 155.1 294.083 160 294.283 163.8C294.683 167.6 295.983 171.3 298.183 174.9C300.583 179.5 303.983 182.9 308.383 185.1C312.783 187.3 317.083 188 321.283 187.2C325.483 186.4 328.983 184 331.783 180C334.783 175.8 336.083 169.6 335.683 161.4C337.683 161.6 340.383 161.7 343.783 161.7C347.183 161.5 350.683 161.3 354.283 161.1C358.083 160.9 361.683 160.9 365.083 161.1C368.483 161.1 371.283 161.4 373.483 162C373.083 167.2 372.683 172.3 372.283 177.3C371.883 182.3 371.383 187 370.783 191.4C370.183 195.6 369.383 199.3 368.383 202.5C367.583 205.5 366.483 207.6 365.083 208.8C361.683 213.6 357.283 217 351.883 219C346.483 221 340.583 222.2 334.183 222.6C327.783 223 321.183 223 314.383 222.6C307.783 222.2 301.683 222 296.083 222C290.483 221.2 285.283 219.4 280.483 216.6C275.083 212.8 270.583 207.9 266.983 201.9C263.383 195.7 260.483 189 258.283 181.8C256.083 174.4 254.583 166.6 253.783 158.4C252.983 150.2 252.783 142 253.183 133.8C253.783 126.4 254.383 119.3 254.983 112.5C255.783 105.5 257.383 98.7 259.783 92.1C262.383 86.3 266.383 81.4 271.783 77.4C277.183 73.2 283.283 70.1 290.083 68.1C296.883 65.9 304.083 64.7 311.683 64.5C319.283 64.3 326.683 65.1 333.883 66.9C343.083 68.5 350.483 71.7 356.083 76.5C361.683 81.3 365.883 87.1 368.683 93.9C371.683 100.7 373.483 108.2 374.083 116.4C374.683 124.6 374.683 132.9 374.083 141.3C372.683 141.7 369.983 142.1 365.983 142.5C362.183 142.9 357.583 143.3 352.183 143.7C346.983 144.1 341.383 144.4 335.383 144.6C329.383 144.8 323.583 144.9 317.983 144.9C312.583 144.9 307.683 144.8 303.283 144.6ZM338.383 105.3C336.383 101.7 333.583 99 329.983 97.2C328.383 96.2 326.783 95.5 325.183 95.1C323.583 94.5 321.683 94.2 319.483 94.2C314.683 94.2 310.783 94.7 307.783 95.7C304.783 96.7 302.383 98.1 300.583 99.9C298.783 101.7 297.383 103.8 296.383 106.2C295.583 108.6 294.983 111.1 294.583 113.7C294.183 115.9 293.983 117.5 293.983 118.5C294.183 119.3 295.183 119.9 296.983 120.3C298.783 120.5 301.583 120.6 305.383 120.6C309.383 120.4 315.183 120.3 322.783 120.3C327.983 120.3 331.883 120.4 334.483 120.6C337.083 120.8 338.883 120.9 339.883 120.9C341.083 120.7 341.683 120.4 341.683 120C341.683 119.4 341.683 118.3 341.683 116.7C341.683 112.7 340.583 108.9 338.383 105.3ZM436.584 144.6C432.184 144.4 428.984 144.1 426.984 143.7V149.1C427.184 155.1 427.384 160 427.584 163.8C427.984 167.6 429.284 171.3 431.484 174.9C433.884 179.5 437.284 182.9 441.684 185.1C446.084 187.3 450.384 188 454.584 187.2C458.784 186.4 462.284 184 465.084 180C468.084 175.8 469.384 169.6 468.984 161.4C470.984 161.6 473.684 161.7 477.084 161.7C480.484 161.5 483.984 161.3 487.584 161.1C491.384 160.9 494.984 160.9 498.384 161.1C501.784 161.1 504.584 161.4 506.784 162C506.384 167.2 505.984 172.3 505.584 177.3C505.184 182.3 504.684 187 504.084 191.4C503.484 195.6 502.684 199.3 501.684 202.5C500.884 205.5 499.784 207.6 498.384 208.8C494.984 213.6 490.584 217 485.184 219C479.784 221 473.884 222.2 467.484 222.6C461.084 223 454.484 223 447.684 222.6C441.084 222.2 434.984 222 429.384 222C423.784 221.2 418.584 219.4 413.784 216.6C408.384 212.8 403.884 207.9 400.284 201.9C396.684 195.7 393.784 189 391.584 181.8C389.384 174.4 387.884 166.6 387.084 158.4C386.284 150.2 386.084 142 386.484 133.8C387.084 126.4 387.684 119.3 388.284 112.5C389.084 105.5 390.684 98.7 393.084 92.1C395.684 86.3 399.684 81.4 405.084 77.4C410.484 73.2 416.584 70.1 423.384 68.1C430.184 65.9 437.384 64.7 444.984 64.5C452.584 64.3 459.984 65.1 467.184 66.9C476.384 68.5 483.784 71.7 489.384 76.5C494.984 81.3 499.184 87.1 501.984 93.9C504.984 100.7 506.784 108.2 507.384 116.4C507.984 124.6 507.984 132.9 507.384 141.3C505.984 141.7 503.284 142.1 499.284 142.5C495.484 142.9 490.884 143.3 485.484 143.7C480.284 144.1 474.684 144.4 468.684 144.6C462.684 144.8 456.884 144.9 451.284 144.9C445.884 144.9 440.984 144.8 436.584 144.6ZM471.684 105.3C469.684 101.7 466.884 99 463.284 97.2C461.684 96.2 460.084 95.5 458.484 95.1C456.884 94.5 454.984 94.2 452.784 94.2C447.984 94.2 444.084 94.7 441.084 95.7C438.084 96.7 435.684 98.1 433.884 99.9C432.084 101.7 430.684 103.8 429.684 106.2C428.884 108.6 428.284 111.1 427.884 113.7C427.484 115.9 427.284 117.5 427.284 118.5C427.484 119.3 428.484 119.9 430.284 120.3C432.084 120.5 434.884 120.6 438.684 120.6C442.684 120.4 448.484 120.3 456.084 120.3C461.284 120.3 465.184 120.4 467.784 120.6C470.384 120.8 472.184 120.9 473.184 120.9C474.384 120.7 474.984 120.4 474.984 120C474.984 119.4 474.984 118.3 474.984 116.7C474.984 112.7 473.884 108.9 471.684 105.3ZM563.884 77.7C563.884 79.9 563.984 82.4 564.184 85.2C565.184 84.6 566.384 83.9 567.784 83.1C569.384 82.3 570.684 81.5 571.684 80.7C575.884 77.7 580.584 75.3 585.784 73.5C590.984 71.7 596.284 70.7 601.684 70.5C607.284 70.3 612.684 70.9 617.884 72.3C623.084 73.7 627.784 76.2 631.984 79.8C633.984 81.6 635.484 85.4 636.484 91.2C637.684 96.8 638.384 103.6 638.584 111.6C638.984 119.6 639.084 128.4 638.884 138C638.884 147.4 638.784 157 638.584 166.8C638.384 176.4 638.184 185.7 637.984 194.7C637.784 203.7 637.884 211.6 638.284 218.4C631.284 219.4 624.984 219.8 619.384 219.6C613.984 219.6 607.784 219.6 600.784 219.6C600.384 215 600.184 209.8 600.184 204C600.184 198.2 600.184 192.2 600.184 186C600.384 179.8 600.384 173.6 600.184 167.4C600.184 161.2 599.984 155.4 599.584 150C599.384 147.6 599.184 145 598.984 142.2C598.784 139.2 598.384 136.3 597.784 133.5C597.384 130.7 596.684 128.2 595.684 126C594.884 123.8 593.684 122.1 592.084 120.9C591.884 120.7 591.684 120.6 591.484 120.6C591.284 120.6 591.084 120.5 590.884 120.3C589.284 119.5 586.884 118.9 583.684 118.5C580.684 117.9 577.684 118.1 574.684 119.1C571.684 119.9 568.984 121.7 566.584 124.5C564.184 127.1 562.784 131.1 562.384 136.5C561.984 143.5 561.884 150.4 562.084 157.2C562.284 163.8 562.484 170.5 562.684 177.3C563.084 183.9 563.284 190.5 563.284 197.1C563.284 203.7 562.884 210.3 562.084 216.9V218.1C558.684 219.1 555.684 219.7 553.084 219.9C550.684 220.1 548.184 220.1 545.584 219.9C542.984 219.9 540.084 219.8 536.884 219.6C533.684 219.4 529.684 219.5 524.884 219.9C524.884 195.3 524.584 170.7 523.984 146.1C523.584 121.5 523.784 96 524.584 69.6C526.984 69.8 528.984 70 530.584 70.2C532.184 70.2 533.684 70.2 535.084 70.2C536.484 70.2 537.984 70.2 539.584 70.2C541.184 70 543.184 69.8 545.584 69.6C546.384 69.6 547.784 69.5 549.784 69.3C551.784 68.9 553.784 68.6 555.784 68.4C557.784 68.2 559.584 68.2 561.184 68.4C562.784 68.4 563.584 68.7 563.584 69.3C563.984 72.7 564.084 75.5 563.884 77.7ZM766.443 160.5C769.843 160.5 772.643 160.8 774.843 161.4C774.443 166.6 774.043 171.7 773.643 176.7C773.243 181.7 772.743 186.4 772.143 190.8C771.543 195 770.743 198.7 769.743 201.9C768.943 204.9 767.843 207.1 766.443 208.5C763.043 213.3 758.543 216.7 752.943 218.7C747.543 220.7 741.643 221.9 735.243 222.3C728.843 222.9 722.243 222.9 715.443 222.3C708.643 221.9 702.443 221.7 696.843 221.7C686.643 219.9 678.043 215.5 671.043 208.5C665.643 203.7 661.943 197.7 659.943 190.5C657.943 183.3 656.743 175.8 656.343 168C655.943 160 655.843 152 656.043 144C656.443 136 656.243 128.7 655.443 122.1C655.443 114.9 656.043 107.7 657.243 100.5C657.443 98.3 658.143 95.3 659.343 91.5C660.543 87.7 661.443 84.8 662.043 82.8C663.443 79.8 665.643 77.2 668.643 75C671.843 72.8 675.443 71 679.443 69.6C683.643 68 688.043 66.9 692.643 66.3C697.443 65.7 702.243 65.4 707.043 65.4C711.043 65.8 714.843 65.9 718.443 65.7C722.243 65.3 726.243 65.3 730.443 65.7C736.843 66.1 742.943 67.3 748.743 69.3C754.543 71.3 759.543 74.3 763.743 78.3C766.543 80.3 768.643 83 770.043 86.4C771.643 89.8 772.843 93.8 773.643 98.4C774.443 103 774.843 108.2 774.843 114C775.043 119.6 775.243 125.7 775.443 132.3C772.843 132.9 769.843 133.2 766.443 133.2C763.243 133.2 759.843 133.1 756.243 132.9C752.843 132.7 749.443 132.4 746.043 132C742.843 131.6 739.943 131.2 737.343 130.8C736.343 123.8 733.443 118.4 728.643 114.6C723.843 110.6 717.543 109.6 709.743 111.6C705.543 112.8 702.143 115 699.543 118.2C698.343 119 697.443 121 696.843 124.2C696.043 130.4 695.643 136.7 695.643 143.1C695.643 149.5 695.443 156.2 695.043 163.2C694.643 167.8 695.743 171.4 698.343 174C701.143 176.6 704.443 178.4 708.243 179.4C712.043 180.2 715.943 180.4 719.943 180C723.943 179.4 727.143 178.3 729.543 176.7C731.543 175.3 733.043 173 734.043 169.8C735.243 166.4 736.143 163.4 736.743 160.8C738.743 161 741.443 161.1 744.843 161.1C748.243 160.9 751.843 160.7 755.643 160.5C759.443 160.3 763.043 160.3 766.443 160.5ZM802.321 69.6C810.321 69 817.521 69.1 823.921 69.9C825.321 77.1 826.921 85.7 828.721 95.7C830.521 105.5 832.421 115.5 834.421 125.7C836.421 135.9 838.521 145.7 840.721 155.1C842.921 164.3 845.121 171.9 847.321 177.9C849.521 171.9 851.321 164 852.721 154.2C854.121 144.4 855.421 134.2 856.621 123.6C858.021 113 859.521 102.8 861.121 93C862.721 83.2 864.721 75.3 867.121 69.3C873.921 69.5 880.821 69.4 887.821 69C894.821 68.6 902.521 68.7 910.921 69.3C907.721 81.3 904.821 92.8 902.221 103.8C899.821 114.6 897.421 125.2 895.021 135.6C892.421 145.4 890.021 155.7 887.821 166.5C885.821 177.3 883.221 187.9 880.021 198.3C877.021 208.7 873.121 218.6 868.321 228C863.521 237.4 857.121 245.5 849.121 252.3C841.321 259.3 831.521 264.6 819.721 268.2C808.121 271.8 793.821 273.1 776.821 272.1C774.821 266.1 773.821 259.3 773.821 251.7C773.621 244.3 774.021 237.8 775.021 232.2C779.821 232.2 784.721 232.4 789.721 232.8C794.921 233.2 799.521 232.9 803.521 231.9C807.521 231.1 810.521 229.2 812.521 226.2C814.721 223.2 815.321 218.4 814.321 211.8C810.121 187.6 804.821 163.4 798.421 139.2C792.021 115 785.721 91.6 779.521 69C786.721 69.8 794.321 70 802.321 69.6ZM1027.77 160.5C1031.17 160.5 1033.97 160.8 1036.17 161.4C1035.77 166.6 1035.37 171.7 1034.97 176.7C1034.57 181.7 1034.07 186.4 1033.47 190.8C1032.87 195 1032.07 198.7 1031.07 201.9C1030.27 204.9 1029.17 207.1 1027.77 208.5C1024.37 213.3 1019.87 216.7 1014.27 218.7C1008.87 220.7 1002.97 221.9 996.571 222.3C990.171 222.9 983.571 222.9 976.771 222.3C969.971 221.9 963.771 221.7 958.171 221.7C947.971 219.9 939.371 215.5 932.371 208.5C926.971 203.7 923.271 197.7 921.271 190.5C919.271 183.3 918.071 175.8 917.671 168C917.271 160 917.171 152 917.371 144C917.771 136 917.571 128.7 916.771 122.1C916.771 114.9 917.371 107.7 918.571 100.5C918.771 98.3 919.471 95.3 920.671 91.5C921.871 87.7 922.771 84.8 923.371 82.8C924.771 79.8 926.971 77.2 929.971 75C933.171 72.8 936.771 71 940.771 69.6C944.971 68 949.371 66.9 953.971 66.3C958.771 65.7 963.571 65.4 968.371 65.4C972.371 65.8 976.171 65.9 979.771 65.7C983.571 65.3 987.571 65.3 991.771 65.7C998.171 66.1 1004.27 67.3 1010.07 69.3C1015.87 71.3 1020.87 74.3 1025.07 78.3C1027.87 80.3 1029.97 83 1031.37 86.4C1032.97 89.8 1034.17 93.8 1034.97 98.4C1035.77 103 1036.17 108.2 1036.17 114C1036.37 119.6 1036.57 125.7 1036.77 132.3C1034.17 132.9 1031.17 133.2 1027.77 133.2C1024.57 133.2 1021.17 133.1 1017.57 132.9C1014.17 132.7 1010.77 132.4 1007.37 132C1004.17 131.6 1001.27 131.2 998.671 130.8C997.671 123.8 994.771 118.4 989.971 114.6C985.171 110.6 978.871 109.6 971.071 111.6C966.871 112.8 963.471 115 960.871 118.2C959.671 119 958.771 121 958.171 124.2C957.371 130.4 956.971 136.7 956.971 143.1C956.971 149.5 956.771 156.2 956.371 163.2C955.971 167.8 957.071 171.4 959.671 174C962.471 176.6 965.771 178.4 969.571 179.4C973.371 180.2 977.271 180.4 981.271 180C985.271 179.4 988.471 178.3 990.871 176.7C992.871 175.3 994.371 173 995.371 169.8C996.571 166.4 997.471 163.4 998.071 160.8C1000.07 161 1002.77 161.1 1006.17 161.1C1009.57 160.9 1013.17 160.7 1016.97 160.5C1020.77 160.3 1024.37 160.3 1027.77 160.5ZM1051.59 55.5C1051.59 37.3 1052.49 19.1 1054.29 0.899983L1095.09 1.79999C1095.09 9.99999 1094.99 19.9 1094.79 31.5C1094.59 43.1 1094.39 55.5 1094.19 68.7C1093.99 81.9 1093.79 95.6 1093.59 109.8C1093.59 124 1093.59 137.7 1093.59 150.9C1093.59 164.1 1093.69 176.5 1093.89 188.1C1094.09 199.5 1094.39 209.2 1094.79 217.2C1093.79 218.4 1091.29 219 1087.29 219C1083.29 219.2 1078.89 219.2 1074.09 219C1069.49 219 1065.09 218.9 1060.89 218.7C1056.69 218.5 1053.89 218.6 1052.49 219C1053.89 201 1054.39 182.9 1053.99 164.7C1053.79 146.5 1053.39 128.3 1052.79 110.1C1052.19 91.9 1051.79 73.7 1051.59 55.5ZM1160.8 144.6C1156.4 144.4 1153.2 144.1 1151.2 143.7V149.1C1151.4 155.1 1151.6 160 1151.8 163.8C1152.2 167.6 1153.5 171.3 1155.7 174.9C1158.1 179.5 1161.5 182.9 1165.9 185.1C1170.3 187.3 1174.6 188 1178.8 187.2C1183 186.4 1186.5 184 1189.3 180C1192.3 175.8 1193.6 169.6 1193.2 161.4C1195.2 161.6 1197.9 161.7 1201.3 161.7C1204.7 161.5 1208.2 161.3 1211.8 161.1C1215.6 160.9 1219.2 160.9 1222.6 161.1C1226 161.1 1228.8 161.4 1231 162C1230.6 167.2 1230.2 172.3 1229.8 177.3C1229.4 182.3 1228.9 187 1228.3 191.4C1227.7 195.6 1226.9 199.3 1225.9 202.5C1225.1 205.5 1224 207.6 1222.6 208.8C1219.2 213.6 1214.8 217 1209.4 219C1204 221 1198.1 222.2 1191.7 222.6C1185.3 223 1178.7 223 1171.9 222.6C1165.3 222.2 1159.2 222 1153.6 222C1148 221.2 1142.8 219.4 1138 216.6C1132.6 212.8 1128.1 207.9 1124.5 201.9C1120.9 195.7 1118 189 1115.8 181.8C1113.6 174.4 1112.1 166.6 1111.3 158.4C1110.5 150.2 1110.3 142 1110.7 133.8C1111.3 126.4 1111.9 119.3 1112.5 112.5C1113.3 105.5 1114.9 98.7 1117.3 92.1C1119.9 86.3 1123.9 81.4 1129.3 77.4C1134.7 73.2 1140.8 70.1 1147.6 68.1C1154.4 65.9 1161.6 64.7 1169.2 64.5C1176.8 64.3 1184.2 65.1 1191.4 66.9C1200.6 68.5 1208 71.7 1213.6 76.5C1219.2 81.3 1223.4 87.1 1226.2 93.9C1229.2 100.7 1231 108.2 1231.6 116.4C1232.2 124.6 1232.2 132.9 1231.6 141.3C1230.2 141.7 1227.5 142.1 1223.5 142.5C1219.7 142.9 1215.1 143.3 1209.7 143.7C1204.5 144.1 1198.9 144.4 1192.9 144.6C1186.9 144.8 1181.1 144.9 1175.5 144.9C1170.1 144.9 1165.2 144.8 1160.8 144.6ZM1195.9 105.3C1193.9 101.7 1191.1 99 1187.5 97.2C1185.9 96.2 1184.3 95.5 1182.7 95.1C1181.1 94.5 1179.2 94.2 1177 94.2C1172.2 94.2 1168.3 94.7 1165.3 95.7C1162.3 96.7 1159.9 98.1 1158.1 99.9C1156.3 101.7 1154.9 103.8 1153.9 106.2C1153.1 108.6 1152.5 111.1 1152.1 113.7C1151.7 115.9 1151.5 117.5 1151.5 118.5C1151.7 119.3 1152.7 119.9 1154.5 120.3C1156.3 120.5 1159.1 120.6 1162.9 120.6C1166.9 120.4 1172.7 120.3 1180.3 120.3C1185.5 120.3 1189.4 120.4 1192 120.6C1194.6 120.8 1196.4 120.9 1197.4 120.9C1198.6 120.7 1199.2 120.4 1199.2 120C1199.2 119.4 1199.2 118.3 1199.2 116.7C1199.2 112.7 1198.1 108.9 1195.9 105.3Z" fill="#CFFFE1"/>
</svg>
