<svg width="25" height="25" viewBox="0 0 25 25" fill="none" xmlns="http://www.w3.org/2000/svg">
<path d="M9.46891 9.37504C9.71381 8.67886 10.1972 8.09182 10.8334 7.71789C11.4697 7.34396 12.2178 7.20727 12.9451 7.33203C13.6725 7.4568 14.3323 7.83496 14.8075 8.39955C15.2828 8.96414 15.5429 9.67871 15.5418 10.4167C15.5418 12.5 12.4168 13.5417 12.4168 13.5417M12.5002 17.7084H12.5106M22.9168 12.5C22.9168 18.253 18.2531 22.9167 12.5002 22.9167C6.7472 22.9167 2.0835 18.253 2.0835 12.5C2.0835 6.74707 6.7472 2.08337 12.5002 2.08337C18.2531 2.08337 22.9168 6.74707 22.9168 12.5Z" stroke="#6F6F6F" stroke-linecap="round" stroke-linejoin="round"/>
</svg>
