<svg width="339" height="372" viewBox="0 0 339 372" fill="none" xmlns="http://www.w3.org/2000/svg">
<path d="M138.063 208.197H50.4844V371.62H138.063V208.197Z" fill="#101720"/>
<path d="M137.976 371.883H50.3968C50.2217 371.883 50.1341 371.795 50.1341 371.62V208.197C50.1341 208.022 50.2217 207.935 50.3968 207.935H137.976C138.151 207.935 138.239 208.022 138.239 208.197V371.62C138.239 371.795 138.151 371.883 137.976 371.883ZM50.7472 371.357H137.801V208.46H50.7472V371.357Z" fill="#101720"/>
<path d="M307.792 208.197H137.976V371.62H307.792V208.197Z" fill="#008EB1"/>
<path d="M307.792 371.883H137.976C137.801 371.883 137.713 371.795 137.713 371.62V208.197C137.713 208.022 137.801 207.935 137.976 207.935H307.792C307.967 207.935 308.054 208.022 308.054 208.197V371.62C308.054 371.795 307.967 371.883 307.792 371.883ZM138.239 371.357H307.529V208.46H138.239V371.357Z" fill="#101720"/>
<path d="M226.518 46.7891C224.592 49.1538 226.343 52.3942 226.518 54.6712C226.606 56.1601 223.716 58.7875 221.614 60.539C220.388 61.5024 219.424 62.203 219.424 62.203L149.274 134.981L143.493 141.024C143.493 141.024 126.503 131.478 126.328 124.209C126.153 116.852 121.336 112.999 117.22 111.247C113.103 109.496 112.928 107.394 112.928 104.504C112.928 101.614 110.564 101.088 107.498 99.3366C104.521 97.585 106.447 91.9799 103.82 90.4035C101.193 88.8271 100.58 82.6965 102.506 79.1058C104.433 75.4275 104.433 75.8654 102.944 72.187C101.455 68.5087 104.258 63.0788 107.674 59.6632C111.089 56.1601 112.228 54.0582 111.089 50.6426C110.038 47.227 113.892 40.4834 117.132 37.8561C120.373 35.2287 122.124 34.4405 120.81 31.2876C119.497 28.2224 123.175 24.6316 125.102 22.7049C127.029 20.7781 127.029 17.0998 131.583 14.2973C136.137 11.4948 144.719 12.9836 148.135 13.2463C151.551 13.4215 153.127 11.9327 155.492 9.39286C157.856 6.85307 162.586 4.83875 165.476 5.8897C168.278 6.94064 169.592 4.83875 171.957 2.21137C174.321 -0.415998 181.065 -0.415998 186.232 2.21137C191.399 4.83875 193.238 13.2463 193.238 13.2463C193.238 13.2463 195.866 11.3196 198.493 12.1954C201.12 13.0712 201.558 15.2607 204.186 14.56C206.813 13.8594 209.966 12.1954 212.768 14.56C215.571 16.9247 218.987 25.595 219.249 28.5727C219.424 30.4994 220.738 32.6889 222.315 34.3529C223.19 35.2287 224.066 36.0169 224.854 36.5424C227.219 38.0312 228.357 44.5121 226.343 46.8767L226.518 46.7891Z" fill="#8FDCE8"/>
<path d="M143.493 141.199H143.406C142.705 140.849 126.24 131.566 126.065 124.121C125.802 116.239 120.372 112.736 117.132 111.422C113.016 109.671 112.666 107.394 112.666 104.416C112.666 101.438 111.177 101.526 108.987 100.388C108.462 100.125 107.936 99.862 107.323 99.5117C105.659 98.5483 105.396 96.534 105.134 94.6073C104.959 92.9433 104.783 91.2793 103.645 90.5786C100.93 88.9146 100.229 82.7841 102.244 78.9306L102.594 78.3176C103.586 76.4492 103.703 74.6101 102.944 72.8001L102.682 72.187C101.105 68.3336 104.083 62.8161 107.498 59.4005C111.089 55.7222 111.877 53.7954 110.914 50.6426C109.775 47.0519 113.804 40.2207 117.044 37.5933C117.395 37.3306 117.745 37.0678 118.008 36.8051C120.635 34.7908 121.686 33.915 120.635 31.2876C119.322 28.1348 122.737 24.6316 124.839 22.6173L125.014 22.4421C125.715 21.7415 126.065 20.8657 126.591 19.9023C127.466 18.0632 128.605 15.8737 131.583 14.0345C135.436 11.6699 142.267 12.283 146.296 12.7209C147.084 12.7209 147.785 12.896 148.398 12.896C151.726 13.0712 153.127 11.7575 155.492 9.13012C157.856 6.50275 162.761 4.48843 165.738 5.62696C168.016 6.50275 169.154 5.10148 170.993 3.08716C171.256 2.73685 171.606 2.38653 171.957 2.03621C174.409 -0.678738 181.24 -0.678738 186.495 2.03621C191.136 4.40085 193.151 11.1444 193.589 12.896C194.377 12.3705 196.566 11.232 198.756 12.0202C199.807 12.3705 200.507 12.9836 201.208 13.4215C202.084 14.1221 202.872 14.7352 204.273 14.3849C204.799 14.2973 205.237 14.1221 205.762 13.947C208.039 13.2463 210.667 12.4581 213.031 14.4724C215.921 16.9247 219.424 25.7701 219.6 28.6602C219.775 30.3242 220.826 32.4261 222.577 34.2653C223.365 35.1411 224.241 35.8417 225.117 36.4548C226.256 37.1554 227.219 39.0822 227.569 41.4468C227.832 43.3735 227.832 45.8257 226.693 47.227C225.38 48.891 225.905 50.9929 226.343 52.9197C226.518 53.6203 226.693 54.3209 226.781 54.934C226.869 56.1601 225.205 58.262 221.789 61.0645C220.563 62.0279 219.6 62.7285 219.6 62.7285L143.756 141.462C143.756 141.462 143.669 141.462 143.581 141.462L143.493 141.199ZM139.815 12.7209C136.925 12.7209 133.947 13.0712 131.845 14.3849C128.955 16.1364 127.992 18.2383 127.028 20.0775C126.503 21.1285 126.065 22.0918 125.364 22.7925L125.189 22.9676C123.175 24.9819 119.935 28.2224 121.073 31.1125C122.299 34.0902 120.898 35.1411 118.271 37.243C118.008 37.5057 117.658 37.7685 117.307 38.0312C114.154 40.4834 110.301 47.1394 111.352 50.4674C112.49 54.2333 111.177 56.4228 107.849 59.7508C104.433 63.1664 101.718 68.5087 103.119 72.0119L103.382 72.6249C104.608 75.6026 104.608 75.6902 103.032 78.5803L102.682 79.1934C100.755 82.7841 101.368 88.6519 103.908 90.2283C105.221 91.1041 105.484 92.8557 105.659 94.6073C105.834 96.4464 106.097 98.2856 107.586 99.1614C108.111 99.5117 108.724 99.7745 109.162 100.037C111.352 101.176 113.103 102.052 113.103 104.504C113.103 106.956 113.366 109.321 117.22 110.985C119.935 112.123 126.24 115.626 126.415 124.209C126.591 130.953 141.479 139.71 143.318 140.761L148.923 134.894L219.074 62.1155C219.074 62.1155 220.037 61.4148 221.264 60.4515C224.416 57.9117 226.168 55.8098 226.08 54.8464C226.08 54.2333 225.818 53.6203 225.73 52.9197C225.205 50.9053 224.679 48.6283 226.168 46.7891C227.044 45.7382 227.307 43.7239 226.956 41.4468C226.606 39.2573 225.73 37.5057 224.679 36.8927C223.803 36.3672 222.84 35.4914 222.052 34.6156C220.213 32.6889 219.074 30.4994 218.987 28.6602C218.724 25.8577 215.396 17.1874 212.593 14.8228C210.404 12.9836 208.039 13.6842 205.762 14.3849C205.237 14.56 204.711 14.7352 204.186 14.8228C202.434 15.2607 201.558 14.56 200.595 13.7718C199.982 13.2463 199.281 12.7209 198.318 12.4581C195.866 11.6699 193.326 13.5091 193.326 13.5091C193.326 13.5091 193.151 13.5091 193.063 13.5091C193.063 13.5091 192.888 13.4215 192.888 13.3339C192.888 13.3339 190.961 5.0139 185.969 2.47411C180.977 -0.0656845 174.321 -0.0656845 172.044 2.47411C171.694 2.82442 171.431 3.17474 171.081 3.52506C169.242 5.62696 167.84 7.20338 165.213 6.24001C162.41 5.18906 157.856 7.1158 155.579 9.65559C153.127 12.3705 151.551 13.8594 148.047 13.5967C147.434 13.5967 146.734 13.5091 145.946 13.4215C144.194 13.2463 141.917 12.9836 139.552 12.9836L139.815 12.7209Z" fill="#101720"/>
<path d="M226.518 46.7891C224.592 49.1537 226.343 52.3941 226.518 54.6712C226.606 56.16 223.716 58.7874 221.614 60.539L200.858 56.5979V36.5423C205.762 35.7541 209.265 37.856 211.017 38.7318C212.768 39.6076 213.732 38.1187 218.023 38.7318C222.227 39.3448 222.577 34.2653 222.577 34.2653C223.453 35.141 224.329 35.9293 225.117 36.4547C227.482 37.9436 228.62 44.4244 226.606 46.7891H226.518Z" fill="#101720"/>
<path d="M221.614 60.8018L200.858 56.8608C200.77 56.8608 200.682 56.6856 200.682 56.598V36.5424C200.682 36.4548 200.77 36.2797 200.945 36.2797C205.499 35.5791 208.915 37.3306 210.754 38.294C210.929 38.3816 211.104 38.4692 211.28 38.5567C212.068 38.9071 212.681 38.8195 213.557 38.6443C214.52 38.4692 215.921 38.2064 218.198 38.5567C219.249 38.7319 220.125 38.5567 220.826 37.9437C222.315 36.7176 222.49 34.3529 222.49 34.3529C222.49 34.2654 222.49 34.1778 222.665 34.0902C222.752 34.0902 222.84 34.0902 222.928 34.0902C223.716 34.966 224.592 35.6666 225.467 36.2797C226.606 36.9803 227.569 38.9071 227.92 41.2717C228.182 43.1984 228.182 45.6506 227.044 47.0519C225.73 48.7159 226.256 50.8178 226.693 52.7445C226.869 53.4452 227.044 54.1458 227.131 54.7589C227.219 55.985 225.555 58.0869 222.139 60.8894C222.139 60.8894 222.052 60.8894 221.964 60.8894L221.614 60.8018ZM201.033 56.3353L221.439 60.2764C224.592 57.7366 226.256 55.7222 226.168 54.7589C226.168 54.1458 225.905 53.5328 225.818 52.8321C225.292 50.8178 224.767 48.5408 226.256 46.7016C227.131 45.6506 227.394 43.6363 227.044 41.3593C226.693 39.1698 225.818 37.4182 224.767 36.8052C224.066 36.3673 223.278 35.6666 222.577 34.966C222.402 35.8418 222.052 37.4182 220.826 38.3816C220.037 38.9946 218.987 39.2574 217.848 39.0822C215.659 38.7319 214.432 39.0822 213.381 39.1698C212.418 39.345 211.717 39.5201 210.754 38.9946C209.791 38.4692 210.404 38.8195 210.229 38.7319C208.302 37.7685 205.237 36.1921 200.945 36.8052V56.4229L201.033 56.3353Z" fill="#101720"/>
<path d="M149.274 134.981L143.493 141.024C143.493 141.024 126.503 131.478 126.328 124.209C126.153 116.852 121.336 112.999 117.22 111.247C113.103 109.496 112.928 107.394 112.928 104.504C112.928 101.614 110.564 101.088 107.498 99.3365C104.521 97.5849 106.447 91.9799 103.82 90.4035C101.193 88.827 100.58 82.6965 102.506 79.1058C104.433 75.4275 104.433 75.8653 102.944 72.187C101.455 68.5087 104.258 63.0788 107.674 59.6632C111.089 56.1601 112.228 54.0582 111.089 50.6426C116.344 56.7731 111.352 65.2683 114.505 69.6472C117.658 74.0262 111.177 83.0468 114.505 90.4911C117.833 97.9353 127.904 100.3 133.772 91.3668L145.946 97.5849L149.186 135.156L149.274 134.981Z" fill="#101720"/>
<path d="M143.493 141.199H143.406C142.705 140.849 126.24 131.566 126.065 124.121C125.802 116.239 120.372 112.736 117.132 111.422C113.016 109.671 112.666 107.394 112.666 104.416C112.666 101.438 111.177 101.526 108.987 100.387C108.462 100.125 107.936 99.862 107.323 99.5117C105.659 98.5483 105.396 96.534 105.134 94.6072C104.959 92.9432 104.783 91.2792 103.645 90.5786C100.93 88.9146 100.229 82.7841 102.244 78.9306L102.594 78.3175C103.586 76.4492 103.703 74.61 102.944 72.8001L102.682 72.187C101.105 68.3335 104.083 62.816 107.498 59.4005C111.089 55.7221 111.877 53.7954 110.914 50.6426C110.914 50.555 110.914 50.3798 111.002 50.2922C111.089 50.2922 111.264 50.2922 111.352 50.2922C114.417 53.7954 114.067 58.0868 113.804 61.9402C113.629 64.8304 113.454 67.4577 114.767 69.2969C116.344 71.4864 115.643 74.6392 114.767 78.23C113.892 82.0834 113.016 86.3748 114.767 90.2283C116.431 93.9066 119.759 96.3588 123.525 96.6216C127.379 96.8843 131.057 94.87 133.597 91.0165C133.597 90.9289 133.86 90.8413 133.947 90.9289L146.121 97.147C146.121 97.147 146.296 97.2346 146.296 97.3222L149.536 134.894V135.069L143.756 141.112C143.756 141.112 143.669 141.112 143.581 141.112L143.493 141.199ZM111.702 51.6059C112.228 54.5836 110.826 56.6855 107.849 59.6632C104.433 63.0788 101.718 68.4211 103.119 71.9243L103.382 72.5373C104.608 75.515 104.608 75.6026 103.032 78.4927L102.682 79.1058C100.755 82.6965 101.368 88.5643 103.908 90.1407C105.221 91.0165 105.484 92.7681 105.659 94.5197C105.834 96.3588 106.097 98.198 107.586 99.0738C108.111 99.4241 108.724 99.6868 109.162 99.9496C111.352 101.088 113.103 101.964 113.103 104.416C113.103 106.868 113.366 109.233 117.22 110.897C119.935 112.035 126.24 115.539 126.415 124.121C126.591 130.865 141.479 139.623 143.318 140.674L148.836 134.894L145.595 97.5849L133.772 91.542C131.145 95.3955 127.379 97.4973 123.35 97.147C119.409 96.7967 115.818 94.2569 114.154 90.4034C112.315 86.4624 113.366 81.9959 114.154 78.1424C114.943 74.6392 115.556 71.5739 114.154 69.6472C112.753 67.6329 112.928 64.8304 113.103 61.9402C113.366 58.6122 113.541 54.8463 111.527 51.6935L111.702 51.6059Z" fill="#101720"/>
<path d="M213.907 42.4101C218.811 50.4674 219.95 56.6855 219.424 62.203C218.899 67.7204 221.001 75.7777 224.154 81.9958C227.307 88.2139 228.095 93.206 224.154 103.015C220.213 112.824 214.345 126.136 203.573 130.077C203.573 130.077 202.171 151.884 206.112 156.701C210.053 161.518 233.963 161.518 241.582 164.057C249.201 166.597 253.318 172.465 258.485 174.217C263.652 175.968 271.446 178.946 275.913 187.529C280.379 196.111 281.606 208.197 281.606 208.197H78.0718C78.0718 208.197 103.032 183.237 116.607 175.355C130.181 167.473 141.391 157.314 143.143 154.686C144.895 152.059 141.216 100.738 141.216 100.738C141.216 100.738 137.626 97.2346 133.86 96.3588C130.094 95.483 124.927 88.9146 123.788 84.0101C122.65 79.1057 124.839 73.2379 129.393 71.136C133.947 69.0341 139.903 70.0851 142.355 75.515C142.355 75.515 149.887 72.7124 150.325 68.4211C150.762 64.1297 149.098 62.0278 151.113 60.3638C153.127 58.6998 154.703 56.7731 154.003 54.3208C153.302 51.8686 155.054 48.453 157.331 47.5773C159.608 46.7015 163.461 47.7524 165.301 45.0375C167.14 42.3225 168.891 38.9945 170.906 38.2063C172.92 37.4181 175.372 39.9579 179.751 38.2063C184.13 36.4547 188.421 33.1267 192.187 33.1267C195.953 33.1267 197.354 36.8926 200.682 36.4547C204.01 36.0168 205.412 40.6585 207.601 40.4833C209.791 40.3082 213.819 42.4101 213.819 42.4101H213.907Z" fill="#8FDCE8"/>
<mask id="mask0_16_414" style="mask-type:luminance" maskUnits="userSpaceOnUse" x="78" y="33" width="204" height="176">
<path d="M213.907 42.4102C218.811 50.4674 219.95 56.6855 219.424 62.203C218.899 67.7205 221.001 75.7778 224.154 81.9959C227.307 88.214 228.095 93.206 224.154 103.015C220.213 112.824 214.345 126.136 203.573 130.077C203.573 130.077 202.171 151.796 206.112 156.613C210.053 161.43 233.963 161.43 241.582 163.97C249.201 166.51 253.318 172.377 258.485 174.217C263.564 175.968 271.446 178.946 275.913 187.529C280.379 196.111 281.606 208.197 281.606 208.197H78.0718C78.0718 208.197 103.032 183.237 116.607 175.355C130.181 167.473 141.391 157.314 143.143 154.774C144.895 152.234 141.216 100.825 141.216 100.825C141.216 100.825 137.626 97.3222 133.86 96.4464C130.094 95.5707 124.927 89.0022 123.788 84.0978C122.737 79.1934 124.839 73.3256 129.393 71.2237C134.035 69.1218 139.903 70.1727 142.355 75.6026C142.355 75.6026 149.887 72.8001 150.325 68.5087C150.762 64.2173 149.098 62.1154 151.113 60.4514C153.127 58.7874 154.703 56.9483 154.003 54.4085C153.302 51.8687 155.054 48.5407 157.331 47.6649C159.52 46.7891 163.461 47.8401 165.301 45.1251C167.14 42.4102 168.891 39.0821 170.906 38.2939C172.92 37.5057 175.372 40.0455 179.751 38.2939C184.13 36.5424 188.421 33.2144 192.187 33.2144C195.953 33.2144 197.354 36.9803 200.682 36.5424C204.01 36.1045 205.412 40.7462 207.601 40.571C209.791 40.3083 213.819 42.4977 213.819 42.4977L213.907 42.4102Z" fill="white"/>
</mask>
<g mask="url(#mask0_16_414)">
<path d="M157.418 70.5231C151.2 77.2667 154.003 91.1041 162.148 95.6583C170.293 100.212 169.767 106.693 170.993 114.575C172.219 122.457 193.501 127.537 202.522 127.187C211.542 126.836 216.184 121.757 216.184 121.757L210.491 131.04L203.31 133.055C203.31 133.055 193.063 137.959 176.861 139.535C160.659 141.112 156.28 151.359 158.207 155.825C160.133 160.292 163.111 162.218 158.382 163.269C153.653 164.32 147.697 164.846 145.157 171.589C142.618 178.333 144.632 182.011 140.428 188.93C136.224 195.849 138.151 213.365 138.151 213.365L56.0894 219.057L141.216 100.825C141.216 100.825 130.356 92.7682 128.605 86.3749C126.853 79.9816 129.13 76.2157 132.634 75.7778C136.137 75.3399 138.764 79.7189 138.764 79.7189C138.764 79.7189 139.465 82.5214 141.391 81.8208C143.318 81.1201 145.683 76.566 144.807 74.7269C143.931 72.8877 157.506 70.5231 157.506 70.5231H157.418Z" fill="#008FB1"/>
<path d="M203.835 149.344C206.463 159.066 207.338 161.868 210.229 163.707C213.119 165.546 227.482 161.343 236.152 165.546C244.822 169.75 254.719 176.581 259.536 181.398C264.352 186.215 256.208 173.866 261.2 172.465C266.192 171.064 242.808 152.672 242.808 152.672L203.835 149.344Z" fill="#008FB1"/>
<path d="M191.399 104.767C189.648 105.38 187.721 103.891 191.224 101.176C194.727 98.4609 201.471 95.308 203.835 96.972C206.2 98.6361 208.74 100.826 211.805 97.7603C214.87 94.695 215.746 97.2348 216.184 98.1982C216.622 99.1615 216.272 100.3 216.272 100.3C216.272 100.3 213.469 100.475 211.192 101.088C208.915 101.701 204.536 102.49 201.996 102.402C199.456 102.314 193.326 102.927 191.312 104.767H191.399Z" fill="#008FB1"/>
<path d="M214.958 103.978C211.455 106.518 210.229 104.241 208.039 105.029C205.85 105.817 205.762 107.832 203.135 107.569C200.507 107.306 200.42 106.08 197.88 105.817C195.34 105.555 193.676 107.657 196.128 109.058C198.581 110.459 202.084 111.948 206.901 110.372C206.901 110.372 213.644 107.657 215.045 103.978" fill="#008FB1"/>
<path d="M206.463 86.7252C209.09 84.1854 213.469 82.6966 214.608 84.0103C215.221 84.7109 214.608 86.4625 213.907 87.8637C213.294 89.0899 212.068 89.7905 210.666 89.7029C208.389 89.5277 205.324 88.8271 206.463 86.7252Z" fill="#008FB1"/>
<path d="M183.517 56.5981C190.348 56.3353 196.917 59.4006 197.792 62.2907C198.668 65.1808 190.085 67.633 190.085 67.633C190.085 67.633 186.845 60.7143 182.116 60.5391C177.386 60.364 179.401 56.9484 183.429 56.5981" fill="#008FB1"/>
<path d="M204.974 61.2398C204.974 61.2398 203.31 57.1235 206.725 54.4086C210.141 51.6936 213.381 50.2048 214.783 50.5551C216.184 50.9054 214.608 54.7589 212.418 56.5981C210.229 58.4372 212.243 61.3273 212.243 61.3273" fill="#008FB1"/>
<path d="M183.517 36.5424C177.912 41.2717 168.191 46.614 166.527 50.4675C164.863 54.321 171.168 56.3353 168.804 60.5391C166.439 64.7429 170.993 67.1951 170.993 67.1951L147.259 71.9244L143.844 55.5471L164.512 33.1268L183.605 36.4548" fill="#008FB1"/>
</g>
<path d="M281.606 208.46H78.0718C77.9842 208.46 77.8966 208.46 77.8091 208.285C77.8091 208.197 77.8091 208.11 77.8091 208.022C78.0718 207.759 102.944 182.975 116.431 175.18C130.181 167.21 141.216 157.139 142.88 154.599C144.282 152.497 141.917 115.276 140.866 100.913C140.341 100.388 137.1 97.4974 133.685 96.6216C129.831 95.6583 124.576 89.265 123.438 84.0978C122.387 79.3685 124.226 73.1504 129.218 70.8734C131.845 69.6473 134.823 69.4721 137.363 70.4355C139.552 71.3113 141.304 72.8877 142.442 75.1648C143.669 74.6393 149.624 72.0995 149.974 68.4212C150.149 66.7572 149.974 65.4435 149.887 64.305C149.711 62.5534 149.536 61.2397 150.85 60.1012C152.689 58.5247 154.353 56.7732 153.653 54.3209C152.864 51.5184 154.879 48.1028 157.068 47.227C157.856 46.9643 158.82 46.8767 159.871 46.7891C161.797 46.614 163.812 46.5264 164.95 44.7748C165.388 44.1618 165.738 43.5487 166.176 42.9357C167.665 40.6586 168.979 38.4691 170.73 37.8561C171.606 37.5058 172.57 37.7685 173.621 38.0312C175.109 38.3815 177.036 38.907 179.576 37.8561C181.152 37.243 182.729 36.4548 184.218 35.6666C187.02 34.1778 189.648 32.7765 192.187 32.7765C194.727 32.7765 195.428 33.7399 196.741 34.6156C197.968 35.4914 199.106 36.2796 200.682 36.1045C202.697 35.8418 204.011 37.243 205.149 38.4691C206.025 39.4325 206.725 40.2207 207.601 40.1331C209.878 39.8704 213.819 41.9723 213.995 42.0599C213.995 42.0599 214.082 42.1474 214.082 42.235C218.549 49.5041 220.213 55.8098 219.6 62.2031C219.074 67.2826 220.913 75.1648 224.329 81.9083C227.482 88.1265 228.357 93.1185 224.329 103.102C219.6 115.013 213.819 126.486 203.748 130.252C203.66 132.266 202.609 152.059 206.288 156.438C208.652 159.328 218.724 160.467 227.657 161.518C233.349 162.131 238.692 162.744 241.669 163.795C245.961 165.196 249.114 167.736 252.004 169.838C254.193 171.589 256.295 173.166 258.572 173.954C263.039 175.53 271.446 178.42 276.176 187.441C280.642 196.024 281.868 208.11 281.868 208.197V208.373C281.868 208.373 281.781 208.373 281.693 208.373L281.606 208.46ZM78.7724 207.935H281.343C281.168 206.095 279.766 195.411 275.738 187.704C271.096 178.858 262.864 176.056 258.397 174.479C256.12 173.691 253.931 172.027 251.654 170.276C248.851 168.086 245.698 165.634 241.494 164.233C238.604 163.269 233.262 162.656 227.569 162.043C218.111 160.992 208.302 159.854 205.85 156.788C201.909 151.972 203.222 130.953 203.222 129.989C203.222 129.902 203.222 129.814 203.397 129.727C213.381 126.136 219.074 114.663 223.803 102.84C227.744 93.0309 226.869 88.214 223.803 82.0835C220.388 75.3399 218.549 67.2826 219.074 62.1155C219.775 55.8974 218.023 49.6792 213.644 42.4978C213.119 42.235 209.616 40.4834 207.689 40.6586C206.55 40.7462 205.675 39.8704 204.799 38.8194C203.66 37.5933 202.522 36.3672 200.858 36.63C199.019 36.8927 197.792 35.9293 196.566 35.0535C195.34 34.1778 194.114 33.302 192.362 33.302C190.611 33.302 187.37 34.7032 184.656 36.1045C183.167 36.8927 181.59 37.7685 180.014 38.3816C177.299 39.4325 175.285 38.9946 173.708 38.5567C172.657 38.294 171.869 38.1188 171.081 38.3816C169.504 38.907 168.103 41.0965 166.789 43.1984C166.352 43.8115 166.001 44.5121 165.563 45.0376C164.25 46.8767 162.06 47.0519 160.046 47.227C159.082 47.227 158.119 47.4022 157.418 47.6649C155.404 48.4531 153.565 51.606 154.266 54.0582C155.054 56.7731 153.215 58.7875 151.288 60.4515C150.149 61.4148 150.325 62.4658 150.5 64.1298C150.675 65.2683 150.762 66.6696 150.587 68.3336C150.149 72.7125 142.793 75.5151 142.442 75.6027C142.355 75.6027 142.18 75.6027 142.092 75.4275C141.041 73.238 139.377 71.574 137.188 70.7858C134.823 69.91 131.933 69.9976 129.393 71.2237C124.664 73.4132 122.912 79.3685 123.876 83.8351C125.014 88.7395 130.094 95.0452 133.685 95.921C137.538 96.8844 141.041 100.212 141.216 100.388C141.216 100.388 141.216 100.475 141.216 100.563C141.391 102.665 144.895 151.972 143.143 154.687C141.479 157.226 130.357 167.385 116.519 175.355C104.083 182.537 81.9253 204.256 78.5097 207.672L78.7724 207.935Z" fill="#101720"/>
<path d="M140.165 72.4498L162.148 66.6696L239.305 54.6713L240.093 59.5757L237.291 60.1887L237.816 64.918L234.751 65.5311L235.014 69.297L231.072 70.2603L231.423 74.6393L219.687 76.6536L218.987 73.5008L215.659 74.2014L214.082 68.0709L209.791 69.3845L206.463 63.5167L204.011 63.7795L203.047 69.7349L199.632 70.6107L198.756 74.9896L195.428 75.6902L194.377 80.4195L182.378 81.8208L179.839 78.1425L174.672 78.9307L173.008 75.2523L168.191 75.4275L166.614 71.0485L162.848 71.8368L162.148 70.2603L142.442 75.6027L140.165 72.4498Z" fill="#101720"/>
<path d="M182.378 82.0834C182.378 82.0834 182.203 82.0834 182.203 81.9959L179.751 78.4927L174.672 79.2809C174.584 79.2809 174.409 79.2809 174.409 79.1057L172.832 75.515L168.191 75.6902C168.103 75.6902 168.016 75.6902 167.928 75.515L166.352 71.3112L162.848 72.0994C162.761 72.0994 162.586 72.0994 162.586 71.9243L161.973 70.523L142.53 75.8653C142.442 75.8653 142.355 75.8653 142.267 75.7777L139.99 72.6249C139.99 72.6249 139.99 72.4497 139.99 72.3622C139.99 72.3622 140.078 72.187 140.165 72.187L162.148 66.4068L239.392 54.4084C239.568 54.4084 239.655 54.4085 239.655 54.5836L240.443 59.488C240.443 59.6632 240.443 59.7508 240.268 59.7508L237.641 60.2762L238.166 64.8304C238.166 65.0055 238.166 65.0931 237.991 65.0931L235.189 65.6186L235.451 69.1217C235.451 69.2093 235.451 69.3845 235.276 69.3845L231.51 70.2603L231.773 74.3765C231.773 74.5516 231.773 74.6392 231.598 74.6392L219.862 76.6535C219.687 76.6535 219.6 76.6535 219.6 76.4784L218.987 73.5883L215.921 74.2889C215.746 74.2889 215.659 74.2889 215.571 74.1137L214.082 68.2459L210.053 69.4721C209.966 69.4721 209.791 69.472 209.791 69.3845L206.55 63.6042L204.448 63.867L203.485 69.5596C203.485 69.6472 203.397 69.7348 203.31 69.7348L200.069 70.6106L199.194 74.8144C199.194 74.9019 199.106 74.9895 199.019 74.9895L195.866 75.6902L194.902 80.2443C194.902 80.3319 194.815 80.4194 194.64 80.4194L182.641 81.8207L182.378 82.0834ZM179.839 77.8796C179.839 77.8796 180.014 77.8796 180.014 77.9672L182.466 81.4704L194.114 80.0691L195.077 75.6026C195.077 75.515 195.165 75.4274 195.253 75.4274L198.405 74.7268L199.281 70.523C199.281 70.4354 199.369 70.3478 199.456 70.3478L202.609 69.4721L203.573 63.6918C203.573 63.6042 203.66 63.5167 203.835 63.5167L206.288 63.1664C206.375 63.1664 206.463 63.1664 206.55 63.2539L209.791 68.9466L213.819 67.7205H213.995C213.995 67.7205 214.082 67.808 214.082 67.8956L215.571 73.7634L218.636 73.0628C218.811 73.0628 218.899 73.0628 218.987 73.238L219.6 76.1281L230.81 74.2013L230.547 70.0851C230.547 69.9975 230.547 69.8224 230.722 69.8224L234.488 68.9466L234.225 65.4434C234.225 65.2683 234.225 65.1807 234.4 65.1807L237.203 64.6552L236.677 60.1011C236.677 59.9259 236.677 59.8384 236.853 59.8384L239.48 59.3129L238.779 54.9339L161.885 66.9323L140.253 72.6249L142.18 75.3398L161.71 69.9975C161.797 69.9975 161.973 69.9975 162.06 70.1727L162.673 71.5739L166.264 70.7857C166.439 70.7857 166.527 70.7857 166.527 70.9609L168.103 75.1647L172.657 74.9895C172.745 74.9895 172.832 74.9895 172.92 75.1647L174.496 78.7554L179.488 77.9672L179.839 77.8796Z" fill="#101720"/>
<path d="M214.257 90.5785C214.257 90.5785 214.082 90.5785 214.082 90.4909C214.082 90.4034 214.082 90.2282 214.082 90.1406C216.009 88.7394 217.41 85.061 216.709 83.2219C216.009 81.2951 206.288 63.8669 206.2 63.6917C206.2 63.6042 206.2 63.429 206.288 63.3414C206.375 63.3414 206.55 63.3414 206.638 63.429C207.076 64.1296 216.534 81.12 217.235 83.0467C217.936 85.061 216.447 89.0021 214.345 90.5785C214.345 90.5785 214.257 90.5785 214.17 90.5785H214.257Z" fill="#101720"/>
<path d="M190.173 102.051C190.085 102.051 189.998 102.051 189.91 101.964C189.91 101.876 189.91 101.701 189.91 101.614C197.267 97.1471 201.646 95.1327 203.835 95.2203C205.149 95.2203 205.675 95.921 206.112 96.534C206.638 97.1471 207.076 97.7601 208.477 97.585C209.791 97.4974 210.666 96.7092 211.455 95.921C212.418 95.0452 213.381 94.0818 214.958 94.6073C216.709 95.1327 217.235 96.534 217.673 97.6725C217.936 98.2856 218.198 98.8986 218.549 99.1614C218.636 99.1614 218.724 99.4241 218.549 99.5117C218.549 99.5993 218.286 99.6869 218.198 99.5117C217.673 99.1614 217.41 98.4608 217.147 97.8477C216.709 96.7967 216.272 95.5706 214.695 95.1328C213.469 94.7824 212.681 95.4831 211.717 96.3589C210.842 97.1471 209.878 98.1104 208.389 98.198C206.725 98.3732 206.112 97.585 205.499 96.9719C205.061 96.4464 204.624 95.921 203.573 95.921C201.558 95.921 197.092 97.9353 189.998 102.227C189.998 102.227 189.91 102.227 189.823 102.227L190.173 102.051Z" fill="#101720"/>
<path d="M192.187 104.679C192.1 104.679 192.012 104.679 191.925 104.504C191.925 104.416 191.925 104.241 192.012 104.153C197.442 101.438 200.069 101.789 202.697 102.139C205.412 102.489 210.754 101 212.593 100.387C214.783 99.6868 217.585 100.387 217.673 100.387C217.848 100.387 217.936 100.563 217.848 100.738C217.848 100.913 217.673 101 217.498 100.913C217.498 100.913 214.695 100.212 212.681 100.913C210.842 101.526 205.412 103.102 202.522 102.664C200.069 102.314 197.442 102.051 192.187 104.679C192.187 104.679 192.187 104.679 192.1 104.679H192.187Z" fill="#101720"/>
<path d="M201.996 111.422C197.792 111.422 194.552 107.919 194.377 107.744C194.289 107.657 194.289 107.481 194.377 107.394C194.464 107.306 194.64 107.306 194.727 107.394C194.727 107.394 198.668 111.598 203.31 110.722L204.186 110.547C208.565 109.758 212.33 108.97 215.483 102.227C215.483 102.051 215.746 102.051 215.834 102.139C215.921 102.139 216.009 102.314 215.921 102.489C212.681 109.496 208.74 110.284 204.273 111.072L203.397 111.247C202.872 111.335 202.434 111.422 201.909 111.422H201.996Z" fill="#101720"/>
<path d="M204.974 56.8606C204.974 56.8606 204.886 56.8606 204.799 56.8606C204.711 56.8606 204.624 56.5979 204.799 56.5103C204.799 56.5103 210.053 48.6282 216.447 50.6425C216.622 50.6425 216.622 50.8177 216.622 50.9928C216.622 51.168 216.447 51.168 216.272 51.168C210.316 49.2412 205.324 56.7731 205.237 56.8606C205.237 56.8606 205.061 56.9482 204.974 56.9482V56.8606Z" fill="#101720"/>
<path d="M170.993 59.7507C170.906 59.7507 170.818 59.7507 170.73 59.5756C170.73 59.488 170.73 59.3129 170.818 59.2253C182.203 53.6202 193.326 57.7364 193.413 57.824C193.589 57.824 193.589 57.9992 193.589 58.1743C193.589 58.3495 193.413 58.3495 193.238 58.3495C193.151 58.3495 182.203 54.2333 171.081 59.7507C171.081 59.7507 171.081 59.7507 170.993 59.7507Z" fill="#101720"/>
<path d="M127.642 83.9226C127.466 83.9226 127.379 83.835 127.379 83.6598C127.379 83.4847 127.204 79.2809 129.306 77.0038C130.181 76.0404 131.32 75.6025 132.634 75.6025C132.634 75.6025 132.634 75.6025 132.721 75.6025C138.239 75.6025 140.341 82.6964 140.428 82.784C140.428 82.9592 140.428 83.0468 140.253 83.1343C140.078 83.1343 139.99 83.1343 139.903 82.9592C139.903 82.9592 137.801 76.2156 132.721 76.2156C127.642 76.2156 132.721 76.2156 132.634 76.2156C131.407 76.2156 130.444 76.6535 129.656 77.5293C127.642 79.6312 127.904 83.7474 127.904 83.835C127.904 84.0101 127.817 84.0977 127.642 84.0977V83.9226Z" fill="#101720"/>
<path d="M132.458 85.4991C132.371 85.4991 132.283 85.4991 132.196 85.3239C132.196 85.1488 130.532 81.2077 132.021 78.4928C132.634 77.2667 133.772 76.566 135.349 76.2157C135.524 76.2157 135.611 76.2157 135.699 76.3909C135.699 76.566 135.699 76.6536 135.524 76.7412C134.122 77.0039 133.159 77.7045 132.546 78.7555C131.232 81.2077 132.721 85.0612 132.721 85.1488C132.721 85.3239 132.721 85.4115 132.546 85.4991C132.546 85.4991 132.546 85.4991 132.458 85.4991Z" fill="#101720"/>
<path d="M194.027 131.303C175.197 131.303 157.506 120.969 157.243 120.881C157.156 120.881 157.068 120.618 157.156 120.531C157.156 120.443 157.418 120.356 157.506 120.443C157.769 120.618 181.765 134.543 203.397 129.814C203.573 129.814 203.66 129.814 203.748 129.989C203.748 130.164 203.748 130.252 203.573 130.34C200.42 131.04 197.179 131.303 194.027 131.303Z" fill="#101720"/>
<path d="M113.541 228.165L118.533 232.72L101.718 271.167L96.7262 266.7L88.4062 285.53L81.4874 279.312L76.9333 289.821L63.7089 277.823L59.3299 287.632L33.1438 263.898L37.4352 254.089L27.1008 244.718L31.7425 234.296L24.1231 227.377L32.4431 208.46L23.6852 200.578L40.588 162.131L49.2583 170.013L57.1404 152.147L64.6722 158.978L69.8394 147.33L80.1737 156.701L83.6769 148.819L109.863 172.465L106.36 180.347L119.672 192.346L114.505 204.081L121.423 210.299L113.541 228.165Z" fill="#FFFFFE"/>
<path d="M76.9333 289.996C76.9333 289.996 76.8458 289.996 76.7582 289.996L63.7965 278.261L59.5927 287.719C59.5927 287.719 59.5051 287.894 59.4175 287.894C59.4175 287.894 59.2424 287.894 59.1548 287.894L32.9687 264.16C32.9687 264.16 32.8811 263.985 32.9687 263.898L37.1724 254.264L26.9257 245.068C26.9257 245.068 26.8381 244.893 26.9257 244.805L31.4798 234.471L24.0356 227.727C24.0356 227.727 23.948 227.552 24.0356 227.465L32.268 208.723L23.6853 200.928C23.6853 200.928 23.5977 200.753 23.6853 200.666L40.5005 162.218C40.5005 162.218 40.588 162.043 40.6756 162.043C40.6756 162.043 40.8508 162.043 40.9383 162.043L49.3459 169.663L57.0529 152.147C57.0529 152.147 57.1405 151.972 57.2281 151.972C57.2281 151.972 57.4032 151.972 57.4908 151.972L64.8474 158.628L69.8394 147.242C69.8394 147.242 69.927 147.067 70.0146 147.067C70.0146 147.067 70.1898 147.067 70.2773 147.067L80.3489 156.175L83.6769 148.644C83.6769 148.644 83.7645 148.468 83.8521 148.468C83.8521 148.468 84.0272 148.468 84.1148 148.468L110.301 172.202C110.301 172.202 110.389 172.377 110.301 172.465L106.885 180.172L120.022 191.995C120.022 191.995 120.11 192.17 120.022 192.258L114.943 203.818L121.686 209.949C121.686 209.949 121.774 210.124 121.686 210.212L113.892 227.903L118.796 232.282C118.796 232.282 118.884 232.457 118.796 232.544L101.981 270.992C101.981 270.992 101.893 271.167 101.806 271.167C101.806 271.167 101.631 271.167 101.543 271.167L96.8138 266.875L88.6689 285.442C88.6689 285.442 88.5814 285.617 88.4938 285.617C88.4938 285.617 88.3186 285.617 88.231 285.617L81.575 279.574L77.1085 289.733C77.1085 289.733 77.0209 289.909 76.9333 289.909V289.996ZM63.6213 277.56C63.6213 277.56 63.7089 277.56 63.7965 277.56L76.7582 289.296L81.2247 279.136C81.2247 279.136 81.3123 278.961 81.3999 278.961C81.3999 278.961 81.575 278.961 81.6626 278.961L88.3186 285.004L96.4635 266.437C96.4635 266.437 96.551 266.262 96.6386 266.262C96.6386 266.262 96.8138 266.262 96.9014 266.262L101.631 270.554L118.271 232.632L113.366 228.253C113.366 228.253 113.279 228.078 113.366 227.99L121.161 210.299L114.417 204.169C114.417 204.169 114.33 203.994 114.417 203.906L119.497 192.346L106.36 180.522C106.36 180.522 106.272 180.347 106.36 180.26L109.775 172.553L83.9397 149.169L80.6117 156.701C80.6117 156.701 80.5241 156.876 80.4365 156.876C80.4365 156.876 80.2613 156.876 80.1738 156.876L70.1022 147.768L65.1102 159.153C65.1102 159.153 65.0226 159.328 64.935 159.328C64.935 159.328 64.7598 159.328 64.6723 159.328L57.3156 152.672L49.6087 170.188C49.6087 170.188 49.5211 170.363 49.4335 170.363C49.3459 170.363 49.2584 170.363 49.1708 170.363L40.7632 162.744L24.1232 200.666L32.7059 208.46C32.7059 208.46 32.7935 208.635 32.7059 208.723L24.4735 227.465L31.9177 234.208C31.9177 234.208 32.0053 234.383 31.9177 234.471L27.3636 244.805L37.6103 254.001C37.6103 254.001 37.6979 254.176 37.6103 254.264L33.4065 263.898L59.2424 287.194L63.4462 277.735C63.4462 277.735 63.5337 277.56 63.6213 277.56Z" fill="#101720"/>
<path d="M53.287 287.719L76.9333 289.821L81.4874 279.311L57.9286 277.21L53.287 287.719Z" fill="#101720"/>
<path d="M76.9333 289.996L53.287 287.894C53.287 287.894 53.1118 287.894 53.1118 287.807C53.1118 287.807 53.1118 287.631 53.1118 287.544L57.6659 277.034C57.6659 276.947 57.8411 276.859 57.9287 276.859L81.575 278.961C81.575 278.961 81.7502 278.961 81.7502 279.049C81.7502 279.049 81.7502 279.224 81.7502 279.311L77.1961 289.733C77.1961 289.821 77.0209 289.909 76.9333 289.909V289.996ZM53.7249 287.456L76.7582 289.471L81.1371 279.487L58.1038 277.472L53.7249 287.456Z" fill="#101720"/>
<path d="M88.4062 285.53L64.7599 283.428L73.0799 264.598L96.7262 266.7L88.4062 285.53Z" fill="#008EB1"/>
<path d="M88.4062 285.792L64.7599 283.691C64.7599 283.691 64.5847 283.691 64.5847 283.603C64.5847 283.603 64.5847 283.428 64.5847 283.34L72.9047 264.423C72.9047 264.336 73.0799 264.248 73.1674 264.248L96.7262 266.35C96.7262 266.35 96.9014 266.35 96.9014 266.438C96.9014 266.438 96.9014 266.613 96.9014 266.7L88.5814 285.617C88.5814 285.705 88.4062 285.792 88.3186 285.792H88.4062ZM65.1978 283.253L88.231 285.267L96.2883 266.875L73.255 264.861L65.1978 283.253Z" fill="#101720"/>
<path d="M33.4941 150.132L57.1405 152.234L67.4748 161.605L43.8285 159.503L33.4941 150.132Z" fill="#101720"/>
<path d="M67.4748 161.868L43.8285 159.766C43.8285 159.766 43.7409 159.766 43.6533 159.766L33.319 150.395C33.319 150.395 33.2314 150.22 33.319 150.132C33.319 150.045 33.4941 149.957 33.5817 149.957L57.2281 152.059C57.2281 152.059 57.3156 152.059 57.4032 152.059L67.7375 161.43C67.7375 161.43 67.8251 161.605 67.7375 161.693C67.7375 161.78 67.5624 161.868 67.4748 161.868ZM43.916 159.241L66.6866 161.255L56.9653 152.497L34.1948 150.483L43.916 159.241Z" fill="#101720"/>
<path d="M46.1931 145.228L69.8395 147.33L80.1738 156.701L56.5274 154.599L46.1931 145.228Z" fill="#101720"/>
<path d="M80.1738 156.876L56.5274 154.774C56.5274 154.774 56.4398 154.774 56.3523 154.774L46.0179 145.403C46.0179 145.403 45.9303 145.228 46.0179 145.14C46.1055 145.053 46.1931 144.965 46.2807 144.965L69.8394 147.067C69.8394 147.067 69.927 147.067 70.0146 147.067L80.3489 156.438C80.3489 156.438 80.4365 156.613 80.3489 156.701C80.3489 156.788 80.1738 156.876 80.0862 156.876H80.1738ZM56.7026 154.336L79.4731 156.35L69.7519 147.593L46.9813 145.578L56.7026 154.336Z" fill="#101720"/>
<path d="M17.0293 160.116L40.588 162.218L51.0099 171.589L27.3636 169.487L17.0293 160.116Z" fill="#101720"/>
<path d="M51.0099 171.852L27.3636 169.75C27.3636 169.75 27.276 169.75 27.1884 169.75L16.8541 160.379C16.8541 160.379 16.7665 160.204 16.8541 160.116C16.8541 160.029 17.0293 159.941 17.1168 159.941L40.7632 162.043C40.7632 162.043 40.8508 162.043 40.9384 162.043L51.2727 171.414C51.2727 171.414 51.3603 171.589 51.2727 171.677C51.2727 171.764 51.0975 171.852 51.0099 171.852ZM27.4512 169.225L50.2217 171.239L40.5005 162.481L17.7299 160.467L27.4512 169.225Z" fill="#101720"/>
<path d="M89.9826 226.063L94.9746 230.617L78.1594 269.152L73.0798 264.598L64.7598 283.428L57.9287 277.21L53.287 287.719L40.0625 275.721L35.7712 285.53L9.58503 261.796L13.8764 251.987L3.45449 242.616L8.09618 232.194L0.476805 225.275L8.79682 206.446L0.0389099 198.476L16.9417 160.029L25.6996 167.911L33.4941 150.045L41.1135 156.876L46.1931 145.228L56.5274 154.599L60.0306 146.717L86.2167 170.363L82.8011 178.245L96.0256 190.244L90.8584 201.979L97.7771 208.197L89.9826 226.063Z" fill="#FF9C0F"/>
<path d="M53.287 287.982C53.287 287.982 53.1994 287.982 53.1118 287.982L40.1501 276.246L35.9463 285.705C35.9463 285.705 35.8588 285.88 35.7712 285.88C35.7712 285.88 35.596 285.88 35.5084 285.88L9.3223 262.146C9.3223 262.146 9.23472 261.971 9.3223 261.883L13.5261 252.25L3.27935 243.054C3.27935 243.054 3.19177 242.879 3.27935 242.791L7.83346 232.457L0.389242 225.713C0.389242 225.713 0.301663 225.538 0.389242 225.45L8.62167 206.708L0.038924 198.914C0.038924 198.914 -0.048655 198.739 0.038924 198.651L16.8541 160.204C16.8541 160.204 16.9417 160.029 17.0293 160.029C17.0293 160.029 17.2044 160.029 17.292 160.029L25.6996 167.648L33.4065 150.132C33.4065 150.132 33.4941 149.957 33.5817 149.957C33.5817 149.957 33.7569 149.957 33.8444 149.957L41.2011 156.613L46.1931 145.228C46.1931 145.228 46.2807 145.053 46.3683 145.053C46.3683 145.053 46.5434 145.053 46.631 145.053L56.7026 154.161L60.0306 146.629C60.0306 146.629 60.1182 146.454 60.2057 146.454C60.2057 146.454 60.3809 146.454 60.4685 146.454L86.6546 170.188C86.6546 170.188 86.7422 170.363 86.6546 170.451L83.239 178.158L96.3759 189.981C96.3759 189.981 96.4635 190.156 96.3759 190.244L91.2963 201.804L98.0399 207.934C98.0399 207.934 98.1275 208.11 98.0399 208.197L90.2454 225.888L95.1498 230.267C95.1498 230.267 95.2374 230.442 95.1498 230.53L78.3346 268.977C78.3346 268.977 78.247 269.152 78.1595 269.152C78.1595 269.152 77.9843 269.152 77.8967 269.152L73.1674 264.861L65.0226 283.428C65.0226 283.428 64.935 283.603 64.8474 283.603C64.8474 283.603 64.6723 283.603 64.5847 283.603L57.9287 277.56L53.4622 287.719C53.4622 287.719 53.3746 287.894 53.287 287.894V287.982ZM40.0626 275.458C40.0626 275.458 40.1501 275.458 40.2377 275.458L53.1994 287.194L57.6659 277.034C57.6659 277.034 57.7535 276.859 57.8411 276.859C57.8411 276.859 58.0163 276.859 58.1038 276.859L64.7598 282.902L72.9047 264.335C72.9047 264.335 72.9923 264.16 73.0799 264.16C73.0799 264.16 73.255 264.16 73.3426 264.16L78.0719 268.452L94.7119 230.53L89.8075 226.151C89.8075 226.151 89.7199 225.976 89.8075 225.888L97.602 208.197L90.8584 202.067C90.8584 202.067 90.7708 201.892 90.8584 201.804L95.938 190.244L82.8011 178.42C82.8011 178.42 82.7136 178.245 82.8011 178.158L86.2167 170.451L60.3809 147.067L57.0529 154.599C57.0529 154.599 56.9653 154.774 56.8777 154.774C56.8777 154.774 56.7026 154.774 56.615 154.774L46.5434 145.666L41.5514 157.051C41.5514 157.051 41.4638 157.226 41.3762 157.226C41.3762 157.226 41.2011 157.226 41.1135 157.226L33.7569 150.57L26.0499 168.086C26.0499 168.086 25.9623 168.261 25.8747 168.261C25.8747 168.261 25.6996 168.261 25.612 168.261L17.2044 160.642L0.564397 198.564L9.14715 206.358C9.14715 206.358 9.23473 206.533 9.14715 206.621L0.914715 225.363L8.35894 232.106C8.35894 232.106 8.44651 232.281 8.35894 232.369L3.80482 242.703L14.0516 251.899C14.0516 251.899 14.1392 252.074 14.0516 252.162L9.84778 261.796L35.596 285.092L39.7998 275.633C39.7998 275.633 39.8874 275.458 39.975 275.458H40.0626Z" fill="#101720"/>
<path d="M63.7089 243.93L59.7678 252.775L52.7615 246.382L56.615 237.536L63.7089 243.93Z" fill="#101720"/>
<path d="M59.7678 253.038C59.7678 253.038 59.6803 253.038 59.5927 253.038L52.4988 246.645C52.4988 246.645 52.4112 246.469 52.4988 246.382L56.3523 237.536C56.3523 237.536 56.4398 237.361 56.5274 237.361C56.5274 237.361 56.7026 237.361 56.7901 237.361L63.7965 243.754C63.7965 243.754 63.8841 243.93 63.7965 244.017L59.943 252.863C59.943 252.863 59.8554 253.038 59.7678 253.038ZM53.1118 246.294L59.7678 252.25L63.4462 243.93L56.7901 237.887L53.1118 246.207V246.294Z" fill="#101720"/>
<path d="M31.4798 214.766L27.5388 223.611L20.5324 217.306L24.3859 208.46L31.4798 214.766Z" fill="#101720"/>
<path d="M27.5388 223.874C27.5388 223.874 27.4512 223.874 27.3636 223.874L20.3573 217.481C20.3573 217.481 20.2697 217.306 20.3573 217.218L24.2107 208.373C24.2107 208.373 24.2983 208.197 24.3859 208.197C24.3859 208.197 24.5611 208.197 24.6486 208.197L31.7425 214.591C31.7425 214.591 31.8301 214.766 31.7425 214.853L27.8891 223.699C27.8891 223.699 27.8015 223.874 27.7139 223.874H27.5388ZM20.8827 217.218L27.5388 223.173L31.2171 214.853L24.5611 208.898L20.8827 217.218Z" fill="#101720"/>
<path d="M52.7615 246.382L52.236 247.52L48.3825 256.366L34.6326 243.93L23.2474 233.595L26.8381 225.275L27.5387 223.611L41.3762 236.047L52.7615 246.382Z" fill="#101720"/>
<path d="M48.3826 256.628C48.3826 256.628 48.295 256.628 48.2074 256.628L22.9846 233.858C22.9846 233.858 22.8971 233.683 22.9846 233.595L27.3636 223.611C27.3636 223.611 27.4512 223.436 27.5387 223.436C27.5387 223.436 27.7139 223.436 27.8015 223.436L53.0243 246.207C53.0243 246.207 53.1118 246.382 53.0243 246.469L52.4988 247.608L48.6453 256.366C48.6453 256.366 48.5577 256.541 48.4701 256.541L48.3826 256.628ZM23.5101 233.508L48.295 255.928L52.4112 246.469L27.6263 224.049L27.0133 225.363L23.4225 233.508H23.5101Z" fill="#101720"/>
<path d="M72.5544 200.666L68.6133 209.599L65.1978 217.481L62.1325 224.487L59.7679 222.473L56.0895 219.057L58.5417 213.627L61.9573 205.745L66.599 195.236L72.5544 200.666Z" fill="#101720"/>
<path d="M62.1325 224.75C62.1325 224.75 62.0449 224.75 61.9573 224.75L55.9144 219.32C55.9144 219.32 55.8268 219.145 55.9144 219.057L66.4238 195.236C66.4238 195.236 66.5114 195.061 66.599 195.061C66.599 195.061 66.7742 195.061 66.8617 195.061L72.8171 200.49C72.8171 200.49 72.9047 200.666 72.8171 200.753L62.3952 224.575C62.3952 224.575 62.3076 224.75 62.22 224.75H62.1325ZM56.4398 219.057L62.0449 224.137L72.2916 200.841L66.6866 195.761L56.4398 219.057Z" fill="#101720"/>
<path d="M52.8491 182.887L48.7329 192.345L45.2297 200.228L42.4272 206.708L36.3842 201.279L38.5737 196.287L42.0769 188.404L46.8937 177.457L52.8491 182.887Z" fill="#101720"/>
<path d="M42.4272 206.971C42.4272 206.971 42.3396 206.971 42.252 206.971L36.2091 201.541C36.2091 201.541 36.1215 201.366 36.2091 201.279L46.631 177.457C46.631 177.457 46.7186 177.282 46.8061 177.282C46.8061 177.282 46.9813 177.282 47.0689 177.282L53.0242 182.712C53.0242 182.712 53.1118 182.887 53.0242 182.975L42.6023 206.796C42.6023 206.796 42.5148 206.971 42.4272 206.971ZM36.7345 201.191L42.3396 206.271L52.5863 182.887L46.9813 177.807L36.7345 201.103V201.191Z" fill="#101720"/>
<path d="M86.2167 170.363L109.863 172.465L106.36 180.347L82.8011 178.245L86.2167 170.363Z" fill="#008EB1"/>
<path d="M106.36 180.61L82.8011 178.508C82.8011 178.508 82.626 178.508 82.626 178.42C82.626 178.42 82.626 178.245 82.626 178.158L86.0416 170.275C86.0416 170.188 86.2167 170.1 86.3043 170.1L109.863 172.202C109.863 172.202 110.038 172.202 110.038 172.29C110.038 172.29 110.038 172.465 110.038 172.553L106.623 180.435C106.623 180.522 106.447 180.61 106.36 180.61ZM83.1514 178.07L106.185 180.084L109.425 172.728L86.3919 170.713L83.1514 178.07Z" fill="#101720"/>
<path d="M96.0256 190.244L119.672 192.346L114.505 204.081L90.8584 201.979L96.0256 190.244Z" fill="#008EB1"/>
<path d="M114.505 204.344L90.8584 202.242C90.8584 202.242 90.6833 202.242 90.6833 202.154C90.6833 202.154 90.6833 201.979 90.6833 201.892L95.8504 190.156C95.8504 190.069 96.0256 189.981 96.1132 189.981L119.76 192.083C119.76 192.083 119.935 192.083 119.935 192.17C119.935 192.17 119.935 192.346 119.935 192.433L114.768 204.169C114.768 204.256 114.592 204.344 114.505 204.344ZM91.2963 201.717L114.33 203.731L119.234 192.521L96.2007 190.506L91.2963 201.717Z" fill="#101720"/>
<path d="M97.7772 208.197L121.424 210.299L113.541 228.165L89.9826 226.064L97.7772 208.197Z" fill="#008EB1"/>
<path d="M113.541 228.428L89.8951 226.326C89.8951 226.326 89.7199 226.326 89.7199 226.239C89.7199 226.239 89.7199 226.063 89.7199 225.976L97.602 208.11C97.602 208.022 97.7772 207.935 97.8648 207.935L121.511 210.036C121.511 210.036 121.686 210.036 121.686 210.124C121.686 210.124 121.686 210.299 121.686 210.387L113.804 228.253C113.804 228.341 113.629 228.428 113.541 228.428ZM90.333 225.888L113.366 227.903L120.986 210.474L97.9523 208.46L90.333 225.888Z" fill="#101720"/>
<path d="M94.9746 230.618L118.533 232.719L101.718 271.167L78.1595 269.152L94.9746 230.618Z" fill="#008EB1"/>
<path d="M101.718 271.429L78.0719 269.328C78.0719 269.328 77.8967 269.328 77.8967 269.24C77.8967 269.24 77.8967 269.065 77.8967 268.977L94.7119 230.53C94.7119 230.442 94.8871 230.355 94.9746 230.355L118.621 232.457C118.621 232.457 118.796 232.457 118.796 232.544C118.796 232.544 118.796 232.719 118.796 232.807L101.981 271.254C101.981 271.342 101.806 271.429 101.718 271.429ZM78.5098 268.89L101.543 270.904L118.183 232.982L95.1498 230.968L78.5098 268.89Z" fill="#101720"/>
<path d="M35.7712 285.53L53.287 287.719L40.0626 275.721L35.7712 285.53Z" fill="#101720"/>
<path d="M53.287 287.982L35.6836 285.792C35.6836 285.792 35.5084 285.792 35.5084 285.705C35.5084 285.617 35.5084 285.53 35.5084 285.442L39.7998 275.633C39.7998 275.633 39.8874 275.458 39.975 275.458C39.975 275.458 40.1501 275.458 40.2377 275.458L53.4621 287.456C53.4621 287.456 53.5497 287.631 53.4621 287.719C53.4621 287.807 53.287 287.894 53.1994 287.894L53.287 287.982ZM36.1215 285.354L52.4988 287.369L40.1501 276.159L36.1215 285.354Z" fill="#101720"/>
<path d="M60.0306 146.717L83.6769 148.819L109.863 172.465L86.2167 170.363L60.0306 146.717Z" fill="#008EB1"/>
<path d="M109.863 172.728L86.3043 170.626C86.3043 170.626 86.2167 170.626 86.1291 170.626L59.943 146.892C59.943 146.892 59.8554 146.717 59.943 146.629C59.943 146.542 60.1182 146.454 60.2057 146.454L83.8521 148.556C83.8521 148.556 83.9397 148.556 84.0273 148.556L110.213 172.29C110.213 172.29 110.301 172.465 110.213 172.553C110.213 172.64 110.038 172.728 109.951 172.728H109.863ZM86.3919 170.188L109.162 172.202L83.5894 149.081L60.8188 147.067L86.3919 170.188Z" fill="#101720"/>
<path d="M280.73 170.538C299.642 170.538 314.973 155.207 314.973 136.295C314.973 117.383 299.642 102.052 280.73 102.052C261.818 102.052 246.486 117.383 246.486 136.295C246.486 155.207 261.818 170.538 280.73 170.538Z" fill="#FF9C0F"/>
<path d="M280.73 170.713C261.725 170.713 246.224 155.212 246.224 136.207C246.224 117.203 261.725 101.701 280.73 101.701C299.735 101.701 315.236 117.203 315.236 136.207C315.236 155.212 299.735 170.713 280.73 170.713ZM280.73 102.314C261.988 102.314 246.749 117.553 246.749 136.295C246.749 155.037 261.988 170.276 280.73 170.276C299.472 170.276 314.711 155.037 314.711 136.295C314.711 117.553 299.472 102.314 280.73 102.314Z" fill="#101720"/>
<path d="M309.281 154.336C311.82 149.432 313.134 144.089 313.134 138.484C313.134 119.392 297.633 103.891 278.54 103.891C259.448 103.891 267.593 105.204 262.776 107.657C268.118 104.329 274.337 102.489 280.73 102.489C299.384 102.489 314.535 117.641 314.535 136.295C314.535 154.949 312.696 148.994 309.281 154.336Z" fill="#FFFFFE"/>
<path d="M280.73 163.444C295.724 163.444 307.879 151.289 307.879 136.295C307.879 121.301 295.724 109.145 280.73 109.145C265.736 109.145 253.58 121.301 253.58 136.295C253.58 151.289 265.736 163.444 280.73 163.444Z" fill="#FF9C0F"/>
<path d="M280.73 163.707C265.666 163.707 253.318 151.446 253.318 136.295C253.318 121.144 265.579 108.883 280.73 108.883C295.881 108.883 308.142 121.144 308.142 136.295C308.142 151.446 295.881 163.707 280.73 163.707ZM280.73 109.408C265.929 109.408 253.843 121.494 253.843 136.295C253.843 151.096 265.929 163.182 280.73 163.182C295.531 163.182 307.617 151.096 307.617 136.295C307.617 121.494 295.531 109.408 280.73 109.408Z" fill="#101720"/>
<path d="M289.575 135.945C290.013 135.594 290.451 135.244 290.889 134.894C294.217 131.566 294.217 126.223 290.889 122.895C289.488 121.406 287.473 120.531 285.459 120.443V117.728C285.459 117.29 285.109 116.94 284.671 116.94H280.905C280.467 116.94 280.117 117.29 280.117 117.728V120.443H275.3V117.728C275.3 117.29 274.95 116.94 274.512 116.94H270.746C270.308 116.94 269.958 117.29 269.958 117.728V120.443H266.367C265.929 120.443 265.579 120.793 265.579 121.231V123.946C265.579 124.384 265.929 124.734 266.367 124.734H269.958V147.242H266.367C265.929 147.242 265.579 147.593 265.579 148.031V150.745C265.579 151.183 265.929 151.534 266.367 151.534H269.958V154.949C269.958 155.387 270.308 155.737 270.746 155.737H274.512C274.95 155.737 275.3 155.387 275.3 154.949V151.534H280.117V154.949C280.117 155.387 280.467 155.737 280.905 155.737H284.671C285.109 155.737 285.459 155.387 285.459 154.949V151.534C290.101 151.183 293.604 147.155 293.341 142.425C293.166 139.798 291.765 137.433 289.663 136.032L289.575 135.945ZM287.473 145.929C286.948 146.454 286.247 146.892 285.547 147.067C285.109 147.155 284.759 147.242 284.321 147.242H275.3V138.222H284.321C284.759 138.222 285.109 138.222 285.547 138.397C287.911 139.097 289.313 141.55 288.612 144.002C288.437 144.703 287.999 145.403 287.473 145.929ZM287.473 131.916C286.948 132.441 286.247 132.879 285.547 133.054C285.109 133.142 284.759 133.23 284.321 133.23H275.3V124.209H284.321C284.759 124.209 285.109 124.209 285.547 124.384C287.911 125.085 289.313 127.537 288.612 129.989C288.437 130.69 287.999 131.39 287.473 131.916Z" fill="#FFFFFE"/>
<path d="M284.671 155.913H280.905C280.292 155.913 279.854 155.475 279.854 154.862V151.709H275.563V154.862C275.563 155.475 275.125 155.913 274.512 155.913H270.746C270.133 155.913 269.695 155.475 269.695 154.862V151.709H266.367C265.754 151.709 265.316 151.271 265.316 150.658V147.943C265.316 147.33 265.754 146.892 266.367 146.892H269.695V124.91H266.367C265.754 124.91 265.316 124.472 265.316 123.859V121.144C265.316 120.531 265.754 120.093 266.367 120.093H269.695V117.641C269.695 117.027 270.133 116.59 270.746 116.59H274.512C275.125 116.59 275.563 117.027 275.563 117.641V120.093H279.854V117.641C279.854 117.027 280.292 116.59 280.905 116.59H284.671C285.284 116.59 285.722 117.027 285.722 117.641V120.093C287.736 120.268 289.663 121.144 291.064 122.633C294.48 126.048 294.48 131.566 291.064 134.981C290.714 135.332 290.364 135.594 290.013 135.857C292.115 137.346 293.341 139.71 293.516 142.25C293.867 146.98 290.364 151.096 285.722 151.621V154.774C285.722 155.387 285.284 155.825 284.671 155.825V155.913ZM275.212 151.271H280.029C280.204 151.271 280.292 151.358 280.292 151.534V154.949C280.292 155.212 280.555 155.475 280.817 155.475H284.583C284.846 155.475 285.109 155.212 285.109 154.949V151.534C285.109 151.358 285.196 151.271 285.372 151.271C289.926 150.921 293.254 146.98 292.991 142.513C292.816 139.973 291.502 137.696 289.4 136.295C289.4 136.295 289.313 136.207 289.313 136.12V135.945C289.75 135.594 290.188 135.244 290.626 134.894C293.867 131.653 293.867 126.486 290.626 123.246C289.225 121.844 287.386 120.969 285.372 120.881C285.196 120.881 285.109 120.793 285.109 120.618V117.903C285.109 117.641 284.846 117.378 284.583 117.378H280.817C280.555 117.378 280.292 117.641 280.292 117.903V120.618C280.292 120.793 280.204 120.881 280.029 120.881H275.212C275.037 120.881 274.95 120.793 274.95 120.618V117.903C274.95 117.641 274.687 117.378 274.424 117.378H270.658C270.396 117.378 270.133 117.641 270.133 117.903V120.618C270.133 120.793 270.045 120.881 269.87 120.881H266.279C266.017 120.881 265.754 121.144 265.754 121.406V124.121C265.754 124.384 266.017 124.647 266.279 124.647H269.87C270.045 124.647 270.133 124.734 270.133 124.91V147.417C270.133 147.593 270.045 147.68 269.87 147.68H266.279C266.017 147.68 265.754 147.943 265.754 148.206V150.921C265.754 151.183 266.017 151.446 266.279 151.446H269.87C270.045 151.446 270.133 151.534 270.133 151.709V155.124C270.133 155.387 270.396 155.65 270.658 155.65H274.424C274.687 155.65 274.95 155.387 274.95 155.124V151.709C274.95 151.534 275.037 151.446 275.212 151.446V151.271ZM284.233 147.505H275.212C275.037 147.505 274.95 147.417 274.95 147.242V138.222C274.95 138.046 275.037 137.959 275.212 137.959H284.233C284.671 137.959 285.109 137.959 285.547 138.134C286.773 138.484 287.824 139.273 288.437 140.411C289.05 141.55 289.225 142.776 288.875 144.002C288.7 144.79 288.262 145.491 287.736 146.016C287.123 146.629 286.422 146.98 285.634 147.242C285.196 147.33 284.758 147.417 284.321 147.417L284.233 147.505ZM275.563 146.98H284.321C284.671 146.98 285.109 146.98 285.459 146.804C286.16 146.629 286.773 146.279 287.298 145.753C287.824 145.228 288.174 144.615 288.349 143.914C288.7 142.863 288.524 141.637 287.999 140.674C287.473 139.71 286.51 139.01 285.459 138.66C285.109 138.572 284.671 138.484 284.321 138.484H275.563V146.98ZM284.233 133.492H275.212C275.037 133.492 274.95 133.405 274.95 133.23V124.209C274.95 124.034 275.037 123.946 275.212 123.946H284.233C284.671 123.946 285.109 123.946 285.547 124.121C286.773 124.472 287.824 125.26 288.437 126.398C289.05 127.537 289.225 128.763 288.875 129.989C288.7 130.777 288.262 131.478 287.736 132.004C287.123 132.617 286.422 132.967 285.634 133.23C285.196 133.317 284.758 133.405 284.321 133.405L284.233 133.492ZM275.563 132.967H284.321C284.758 132.967 285.109 132.967 285.459 132.792C286.16 132.617 286.773 132.266 287.298 131.741C287.824 131.215 288.174 130.602 288.349 129.902C288.7 128.851 288.524 127.625 287.999 126.661C287.473 125.698 286.51 124.997 285.459 124.647C285.109 124.559 284.671 124.472 284.321 124.472H275.563V132.967Z" fill="#101720"/>
<path d="M281.43 77.8796H278.19L279.329 97.7601H280.38L281.43 77.8796Z" fill="#FFFFFE"/>
<path d="M280.38 98.0228H279.329C279.153 98.0228 279.066 97.9352 279.066 97.7601L277.927 77.8796V77.7045C277.927 77.7045 278.015 77.7045 278.102 77.7045H281.431H281.606C281.606 77.7045 281.606 77.792 281.606 77.8796L280.467 97.7601C280.467 97.9352 280.38 98.0228 280.204 98.0228H280.38ZM279.504 97.4973H280.117L281.168 78.1424H278.453L279.504 97.4973Z" fill="#101720"/>
<path d="M281.43 194.71H278.19L279.329 174.83H280.38L281.43 194.71Z" fill="#FFFFFE"/>
<path d="M281.431 194.973H278.102H277.927C277.927 194.973 277.927 194.885 277.927 194.798L279.066 174.917C279.066 174.742 279.153 174.654 279.329 174.654H280.38C280.555 174.654 280.642 174.742 280.642 174.917L281.781 194.798V194.973C281.781 194.973 281.693 194.973 281.606 194.973H281.431ZM278.453 194.447H281.168L280.117 175.092H279.504L278.453 194.447Z" fill="#101720"/>
<path d="M338.269 137.959V134.631L318.389 135.769V136.82L338.269 137.959Z" fill="#FFFFFE"/>
<path d="M338.269 138.222L318.389 137.083C318.214 137.083 318.126 136.995 318.126 136.82V135.769C318.126 135.594 318.214 135.507 318.389 135.507L338.269 134.368H338.444C338.444 134.368 338.444 134.456 338.444 134.543V137.871V138.046C338.444 138.046 338.357 138.046 338.269 138.046V138.222ZM318.652 136.558L338.007 137.608V134.894L318.652 135.944V136.558Z" fill="#101720"/>
<path d="M221.351 137.959V134.631L241.319 135.769V136.82L221.351 137.959Z" fill="#FFFFFE"/>
<path d="M221.351 138.222H221.176C221.176 138.222 221.176 138.134 221.176 138.046V134.718V134.543C221.176 134.543 221.264 134.543 221.351 134.543L241.232 135.682C241.407 135.682 241.494 135.769 241.494 135.945V136.996C241.494 137.171 241.407 137.258 241.232 137.258L221.351 138.397V138.222ZM221.614 134.894V137.609L240.969 136.558V135.945L221.614 134.894Z" fill="#101720"/>
<path d="M322.33 96.0961L319.965 93.8191L306.653 108.708L307.441 109.408L322.33 96.0961Z" fill="#FFFFFE"/>
<path d="M307.441 109.671H307.266L306.478 108.883C306.39 108.795 306.39 108.62 306.478 108.532L319.79 93.6438C319.79 93.6438 319.878 93.6439 319.965 93.5563H320.14L322.505 95.9209C322.505 95.9209 322.505 96.0085 322.505 96.0961C322.505 96.1836 322.505 96.2712 322.505 96.2712L307.617 109.583C307.617 109.583 307.529 109.583 307.441 109.583V109.671ZM307.091 108.62L307.529 109.058L321.98 96.0961L320.053 94.1693L307.091 108.62Z" fill="#101720"/>
<path d="M239.655 178.771L237.291 176.406L252.179 163.182L252.967 163.882L239.655 178.771Z" fill="#FFFFFE"/>
<path d="M239.655 179.034H239.48L237.115 176.669C237.115 176.669 237.115 176.581 237.115 176.494C237.115 176.406 237.115 176.319 237.115 176.319L252.004 163.007C252.091 162.919 252.267 162.919 252.354 163.007L253.142 163.795C253.23 163.882 253.23 164.058 253.142 164.145L239.83 179.034C239.83 179.034 239.743 179.034 239.655 179.121V179.034ZM237.728 176.494L239.655 178.421L252.617 163.97L252.179 163.532L237.728 176.494Z" fill="#101720"/>
<path d="M322.33 176.406L319.965 178.771L306.653 163.882L307.441 163.182L322.33 176.406Z" fill="#FFFFFE"/>
<path d="M319.965 179.033C319.965 179.033 319.79 179.033 319.79 178.946L306.478 164.057C306.39 163.97 306.39 163.795 306.478 163.707L307.266 162.919C307.354 162.831 307.529 162.831 307.617 162.919L322.505 176.231C322.505 176.231 322.505 176.318 322.505 176.406C322.505 176.494 322.505 176.581 322.505 176.581L320.14 178.946C320.14 178.946 320.053 178.946 319.965 178.946V179.033ZM307.091 163.882L320.053 178.333L321.98 176.406L307.529 163.444L307.091 163.882Z" fill="#101720"/>
<path d="M239.655 93.8191L237.291 96.0961L252.179 109.408L252.967 108.708L239.655 93.8191Z" fill="#FFFFFE"/>
<path d="M252.179 109.671C252.179 109.671 252.091 109.671 252.004 109.671L237.115 96.3588C237.115 96.3588 237.115 96.2712 237.115 96.1836C237.115 96.096 237.115 96.0084 237.115 96.0084L239.48 93.6438C239.48 93.6438 239.568 93.6438 239.655 93.6438C239.655 93.6438 239.83 93.6438 239.83 93.7314L253.142 108.62C253.23 108.707 253.23 108.883 253.142 108.97L252.354 109.758C252.354 109.758 252.267 109.758 252.179 109.758V109.671ZM237.728 96.096L252.179 109.058L252.617 108.62L239.655 94.1693L237.728 96.096Z" fill="#101720"/>
</svg>
