<svg width="36" height="32" viewBox="0 0 36 32" fill="none" xmlns="http://www.w3.org/2000/svg">
<path d="M17.0927 6.99918L17.25 7.27193L16.0588 9.33529L13.5581 13.6665L9.22656 11.1658L11.7273 6.83457L14.228 2.50298L14.3397 2.30918L16.8317 6.54651L17.0927 6.99918Z" fill="#228B22"/>
<path d="M26.9524 6.26794L26.9474 6.30752L26.219 14.7853L18.4746 11.1633L19.9165 10.3359L17.781 6.63462L17.5183 6.17866L16.1904 3.91925L13.8815 0H21.4079L21.6656 0.445977L22.4583 1.8185L25.5105 7.10035L26.9227 6.2827L26.9524 6.26794Z" fill="#228B22"/>
<path d="M28.188 22.8637L27.8732 22.8636L26.6819 20.8003L24.1813 16.469L28.5127 13.9681L31.0133 18.2994L33.5142 22.6309L33.6262 22.8245L28.7106 22.864L28.188 22.8637Z" fill="#228B22"/>
<path d="M23.8891 30.1029L31.5762 30.1027L32.0916 30.103L35.8552 23.5841L28.6865 23.6417L28.1602 23.6413L23.8887 23.6413L23.8889 21.9775L16.8826 26.8721L23.8895 31.767L23.8891 30.1029Z" fill="#228B22"/>
<path d="M9.07744 24.9642L9.23494 24.6916L11.6175 24.6915L16.6187 24.6917L16.6188 29.6933L11.6175 29.6932L6.61595 29.6933L6.39221 29.6935L8.81589 25.4166L9.07744 24.9642Z" fill="#228B22"/>
<path d="M11.9938 21.6824L10.5519 20.85L8.41632 24.5513L8.15375 25.0071L4.92315 30.7151L4.62094 31.2453L3.48132 29.2733L2.51513 27.6036L0.855225 24.7248L1.11287 24.2788L4.95788 17.6195L3.51598 16.7921L10.6956 13.4326L11.2604 13.17L11.9938 21.6824Z" fill="#228B22"/>
</svg>
