<svg width="36" height="35" viewBox="0 0 36 35" fill="none" xmlns="http://www.w3.org/2000/svg">
<path d="M13.9803 2.91667C10.1595 2.91667 7.05322 6.02292 7.05322 9.84376C7.05322 13.5917 9.98447 16.625 13.8053 16.7563C13.922 16.7417 14.0386 16.7417 14.1261 16.7563C14.1553 16.7563 14.1699 16.7563 14.1991 16.7563C14.2136 16.7563 14.2136 16.7563 14.2282 16.7563C17.9616 16.625 20.8928 13.5917 20.9074 9.84376C20.9074 6.02292 17.8011 2.91667 13.9803 2.91667Z" fill="#228B22"/>
<path d="M21.3886 20.6354C17.3199 17.9229 10.6845 17.9229 6.58654 20.6354C4.73446 21.875 3.71362 23.5521 3.71362 25.3458C3.71362 27.1396 4.73446 28.8021 6.57196 30.0271C8.61362 31.3979 11.297 32.0833 13.9803 32.0833C16.6636 32.0833 19.347 31.3979 21.3886 30.0271C23.2261 28.7875 24.247 27.125 24.247 25.3167C24.2324 23.5229 23.2261 21.8604 21.3886 20.6354Z" fill="#228B22"/>
<path d="M30.0074 10.7042C30.2407 13.5333 28.2282 16.0125 25.4428 16.3479C25.4282 16.3479 25.4282 16.3479 25.4136 16.3479H25.3699C25.2824 16.3479 25.1949 16.3479 25.122 16.3771C23.7074 16.45 22.4095 15.9979 21.4324 15.1667C22.9345 13.825 23.7949 11.8125 23.6199 9.625C23.5178 8.44375 23.1095 7.36458 22.497 6.44583C23.0511 6.16875 23.6928 5.99375 24.349 5.93541C27.2074 5.6875 29.7595 7.81666 30.0074 10.7042Z" fill="#228B22"/>
<path d="M32.924 24.1938C32.8073 25.6083 31.9032 26.8333 30.3865 27.6646C28.9282 28.4667 27.0907 28.8458 25.2677 28.8021C26.3177 27.8542 26.9302 26.6729 27.0469 25.4188C27.1927 23.6104 26.3323 21.875 24.6115 20.4896C23.6344 19.7167 22.4969 19.1042 21.2573 18.6521C24.4802 17.7188 28.5344 18.3458 31.0282 20.3583C32.3698 21.4375 33.0552 22.7938 32.924 24.1938Z" fill="#228B22"/>
</svg>
