<svg width="16" height="16" viewBox="0 0 16 16" fill="none" xmlns="http://www.w3.org/2000/svg">
<g clip-path="url(#clip0_254_221)">
<path d="M5.59342 4.85464L1.45333 5.45489L1.38 5.46982C1.269 5.49928 1.1678 5.55768 1.08675 5.63905C1.0057 5.72042 0.947694 5.82185 0.91866 5.93296C0.889627 6.04408 0.890604 6.16092 0.921493 6.27154C0.952382 6.38215 1.01207 6.48259 1.09448 6.56259L4.09377 9.48207L3.38645 13.6059L3.37802 13.6773C3.37122 13.7921 3.39506 13.9067 3.44709 14.0092C3.49913 14.1118 3.57748 14.1987 3.67414 14.261C3.7708 14.3234 3.88228 14.3589 3.99718 14.3639C4.11208 14.369 4.22626 14.3435 4.32803 14.2899L8.03076 12.3431L11.725 14.2899L11.7899 14.3198C11.897 14.3619 12.0135 14.3749 12.1272 14.3572C12.241 14.3396 12.348 14.292 12.4373 14.2193C12.5266 14.1467 12.595 14.0516 12.6354 13.9438C12.6758 13.836 12.6868 13.7194 12.6673 13.6059L11.9593 9.48207L14.9599 6.56194L15.0105 6.50679C15.0828 6.41773 15.1302 6.31111 15.1479 6.19777C15.1656 6.08443 15.1529 5.96843 15.1112 5.86159C15.0694 5.75474 15.0001 5.66088 14.9102 5.58955C14.8204 5.51822 14.7133 5.47198 14.5997 5.45554L10.4597 4.85464L8.60894 1.1039C8.55539 0.995226 8.47249 0.903716 8.36961 0.839726C8.26674 0.775736 8.14801 0.741821 8.02686 0.741821C7.90571 0.741821 7.78698 0.775736 7.68411 0.839726C7.58124 0.903716 7.49834 0.995226 7.44478 1.1039L5.59342 4.85464Z" fill="#E8FFE8"/>
</g>
<defs>
<clipPath id="clip0_254_221">
<rect width="15.574" height="15.574" fill="white" transform="translate(0.244385 0.0915527)"/>
</clipPath>
</defs>
</svg>
