<svg width="118" height="119" viewBox="0 0 118 119" fill="none" xmlns="http://www.w3.org/2000/svg">
<rect width="117.774" height="118.806" rx="58.8871" fill="#9EF1BD"/>
<path d="M50.0964 22.2217C54.6823 23.1209 57.2 26.7176 59.9875 29.7749L48.4779 48.8377L33.911 40.2055L34.3606 39.3962C37.3279 34.7204 40.3852 30.0446 43.2626 25.2789C44.1618 23.7503 45.6904 22.6713 47.4888 22.4015C47.6686 22.4015 47.7585 22.3116 47.9384 22.2217H50.0964Z" fill="#477859"/>
<path d="M72.3964 89.5711C72.4863 91.909 72.5762 94.157 72.756 96.5848C72.5762 96.315 72.3964 96.1352 72.3064 95.9553C69.2492 91.0098 66.102 86.1542 63.0448 81.2086C62.775 80.9389 62.775 80.4893 62.9549 80.2195C65.8323 75.3639 68.6198 70.5083 71.4972 65.5627L71.8568 65.0232C71.9468 66.8216 72.0367 68.3502 72.0367 69.9687C72.0367 70.5982 72.0367 71.3175 72.1266 71.947C72.2165 72.2167 72.3065 72.3965 72.5762 72.4865C78.5109 73.026 84.5354 73.2058 90.3802 71.6772C91.639 71.3175 92.8979 70.8679 94.2467 70.3284C94.1568 70.5982 94.0669 70.778 93.9769 70.9579C91.2794 76.0832 88.5818 81.2086 85.8842 86.334C85.0749 87.9526 83.4564 88.9417 81.658 89.0316C78.9605 89.2114 76.3528 89.3913 73.6552 89.4812L72.3964 89.5711Z" fill="#477859"/>
<path d="M48.4779 64.2138L42.1836 60.2573C38.1372 64.6634 33.1018 71.8569 31.3933 79.6798C31.2135 79.3202 31.0336 79.1403 30.9437 78.8706C28.2461 73.8351 25.5486 68.7996 22.9409 63.7642C22.1316 62.4154 22.0417 60.7069 22.851 59.2682C24.2897 56.5706 25.9082 54.0529 27.4369 51.4453C27.6167 51.1755 27.7965 50.9057 27.9764 50.636L22.2216 47.0392V46.8594H23.0308L40.0255 47.4888C40.3852 47.4888 40.7449 47.4888 41.0146 48.0283C43.4424 53.2436 45.9602 58.4589 48.388 63.5843L48.4779 64.2138Z" fill="#477859"/>
<path d="M60.8868 45.1513L67.361 41.4646C64.5735 34.4509 61.1566 27.8869 55.3118 22.7615H56.211C61.9658 22.7615 67.6307 22.7615 73.2956 22.7615C75.094 22.7615 76.8025 23.7506 77.7017 25.3691C79.1404 27.7969 80.5791 30.2248 82.0178 32.6526L82.4674 33.4618L88.5819 29.8651C88.402 30.2248 88.3121 30.4945 88.1323 30.6743C85.2549 35.6199 82.2876 40.5654 79.4102 45.511C79.2303 45.8707 78.8706 46.1404 78.421 46.0505C72.7561 45.7807 67.0013 45.511 61.3364 45.2412L60.8868 45.1513Z" fill="#477859"/>
<path d="M57.5598 73.3859L56.8404 90.3806C55.4916 90.2907 54.3227 90.2008 53.0638 90.1108C48.2981 89.7512 43.5324 89.3915 38.7667 89.1217C37.5078 89.0318 36.3389 88.4923 35.5296 87.683C33.2816 85.7048 32.3824 82.7375 33.1018 79.8601C33.6413 77.2524 34.5405 74.7347 35.1699 72.3069L57.5598 73.3859Z" fill="#477859"/>
<path d="M74.2847 52.2546L88.6718 43.2627C88.8516 43.5325 89.0315 43.7123 89.1214 43.9821L97.4838 58.2792C99.1923 61.1566 98.6528 64.8433 96.135 67.0912C94.3367 68.6199 92.2685 69.609 90.0206 70.1485C88.7617 70.5082 87.5028 70.8678 86.2439 71.1376C85.9742 71.1376 85.7044 71.0477 85.5246 70.8679C81.8379 64.8433 78.1513 58.8187 74.4646 52.7941C74.4646 52.7042 74.3746 52.5244 74.2847 52.2546Z" fill="#477859"/>
</svg>
