<svg width="36" height="35" viewBox="0 0 36 35" fill="none" xmlns="http://www.w3.org/2000/svg">
<path opacity="0.4" d="M28.2866 9.11459H30.27C29.9929 8.72084 29.7012 8.35626 29.395 7.99168L28.2866 9.11459Z" fill="#228B22"/>
<path opacity="0.4" d="M27.8636 6.44584C27.499 6.13959 27.1345 5.84792 26.7407 5.57084V7.55417L27.8636 6.44584Z" fill="#228B22"/>
<path opacity="0.4" d="M25.647 11.3021C25.5011 11.3021 25.3699 11.2729 25.224 11.2146C24.9615 11.0979 24.7428 10.8938 24.6261 10.6167C24.5678 10.4854 24.5386 10.3396 24.5386 10.1938V4.36042C24.5386 4.34584 24.5532 4.33125 24.5532 4.30208C22.672 3.42708 20.572 2.91667 18.3553 2.91667C10.3053 2.91667 3.77197 9.45 3.77197 17.5C3.77197 25.55 10.3053 32.0833 18.3553 32.0833C26.4053 32.0833 32.9386 25.55 32.9386 17.5C32.9386 15.2833 32.4282 13.1833 31.5387 11.2875C31.5241 11.2875 31.5095 11.3021 31.4803 11.3021H25.647Z" fill="#228B22"/>
<path d="M29.4094 7.99168L33.7115 3.68959C34.1344 3.26667 34.1344 2.56667 33.7115 2.14376C33.2885 1.72084 32.5885 1.72084 32.1656 2.14376L27.8635 6.44583C28.4177 6.92708 28.9281 7.45209 29.4094 7.99168Z" fill="#228B22"/>
<path d="M26.7405 4.375C26.7405 3.77708 26.2447 3.28125 25.6468 3.28125C25.0634 3.28125 24.5968 3.74792 24.5676 4.31667C25.326 4.68125 26.0551 5.08958 26.7405 5.57083V4.375Z" fill="#228B22"/>
<path d="M32.5739 10.2083C32.5739 9.61042 32.0781 9.11459 31.4802 9.11459H30.2698C30.751 9.8 31.1739 10.5292 31.5239 11.2875C32.1073 11.2583 32.5739 10.7917 32.5739 10.2083Z" fill="#228B22"/>
<path d="M20.9074 17.2375L19.4491 16.7271V13.4896H19.5657C20.3095 13.4896 20.9074 14.1458 20.9074 14.9479C20.9074 15.5458 21.4032 16.0417 22.0011 16.0417C22.5991 16.0417 23.0949 15.5458 23.0949 14.9479C23.0949 12.9354 21.5199 11.3021 19.5657 11.3021H19.4491V10.9375C19.4491 10.3396 18.9532 9.84375 18.3553 9.84375C17.7574 9.84375 17.2616 10.3396 17.2616 10.9375V11.3021H16.8241C15.0595 11.3021 13.6157 12.7896 13.6157 14.6271C13.6157 16.7562 14.8553 17.4417 15.8032 17.7771L17.2616 18.2875V21.525H17.1449C16.4012 21.525 15.8032 20.8688 15.8032 20.0667C15.8032 19.4688 15.3074 18.9729 14.7095 18.9729C14.1116 18.9729 13.6157 19.4688 13.6157 20.0667C13.6157 22.0792 15.1907 23.7125 17.1449 23.7125H17.2616V24.0771C17.2616 24.675 17.7574 25.1708 18.3553 25.1708C18.9532 25.1708 19.4491 24.675 19.4491 24.0771V23.7125H19.8865C21.6511 23.7125 23.0949 22.225 23.0949 20.3875C23.0949 18.2438 21.8553 17.5583 20.9074 17.2375ZM16.5178 15.6917C16.022 15.5167 15.8032 15.4146 15.8032 14.6125C15.8032 13.9854 16.2699 13.475 16.8241 13.475H17.2616V15.9396L16.5178 15.6917ZM19.8865 21.5104H19.4491V19.0458L20.1928 19.3083C20.6887 19.4833 20.9074 19.5854 20.9074 20.3875C20.9074 21 20.4407 21.5104 19.8865 21.5104Z" fill="#228B22"/>
</svg>
