<svg width="31" height="31" viewBox="0 0 31 31" fill="none" xmlns="http://www.w3.org/2000/svg">
<path d="M11.75 22.6875C11.2375 22.6875 10.8125 22.2625 10.8125 21.75V16.5125L9.91255 17.4125C9.55005 17.775 8.95005 17.775 8.58755 17.4125C8.22505 17.05 8.22505 16.45 8.58755 16.0875L11.0875 13.5875C11.35 13.325 11.7625 13.2375 12.1125 13.3875C12.4625 13.525 12.6875 13.875 12.6875 14.25V21.75C12.6875 22.2625 12.2625 22.6875 11.75 22.6875Z" fill="#909090"/>
<path d="M14.25 17.6875C14.0125 17.6875 13.775 17.6 13.5875 17.4125L11.0875 14.9125C10.725 14.55 10.725 13.95 11.0875 13.5875C11.45 13.225 12.05 13.225 12.4125 13.5875L14.9125 16.0875C15.275 16.45 15.275 17.05 14.9125 17.4125C14.725 17.6 14.4875 17.6875 14.25 17.6875Z" fill="#909090"/>
<path d="M19.25 28.9375H11.75C4.9625 28.9375 2.0625 26.0375 2.0625 19.25V11.75C2.0625 4.9625 4.9625 2.0625 11.75 2.0625H18C18.5125 2.0625 18.9375 2.4875 18.9375 3C18.9375 3.5125 18.5125 3.9375 18 3.9375H11.75C5.9875 3.9375 3.9375 5.9875 3.9375 11.75V19.25C3.9375 25.0125 5.9875 27.0625 11.75 27.0625H19.25C25.0125 27.0625 27.0625 25.0125 27.0625 19.25V13C27.0625 12.4875 27.4875 12.0625 28 12.0625C28.5125 12.0625 28.9375 12.4875 28.9375 13V19.25C28.9375 26.0375 26.0375 28.9375 19.25 28.9375Z" fill="#909090"/>
<path d="M28 13.9375H23C18.725 13.9375 17.0625 12.275 17.0625 7.99999V2.99999C17.0625 2.62499 17.2875 2.27499 17.6375 2.13749C17.9875 1.98749 18.3875 2.07499 18.6625 2.33749L28.6625 12.3375C28.925 12.6 29.0125 13.0125 28.8625 13.3625C28.7125 13.7125 28.375 13.9375 28 13.9375ZM18.9375 5.26249V7.99999C18.9375 11.225 19.775 12.0625 23 12.0625H25.7375L18.9375 5.26249Z" fill="#909090"/>
</svg>
